# This file uses centimeters as units for non-parametric coordinates.

mtllib Good Plate.mtl
g default
v 0.766045 -0.014626 -0.642788
v 0.173648 -0.014626 -0.984808
v -0.500000 -0.014626 -0.866026
v -0.939693 -0.014626 -0.342020
v -0.939693 -0.014626 0.342020
v -0.500000 -0.014626 0.866025
v 0.173648 -0.014626 0.984808
v 0.766044 -0.014626 0.642788
v 1.000000 -0.014626 0.000000
v 0.766045 0.029396 -0.642788
v 0.173648 0.029396 -0.984808
v -0.500000 0.029396 -0.866026
v -0.939693 0.029396 -0.342020
v -0.939693 0.029396 0.342020
v -0.500000 0.029396 0.866025
v 0.173648 0.029396 0.984808
v 0.766044 0.029396 0.642788
v 1.000000 0.029396 0.000000
v 0.553607 -0.070575 -0.457227
v 0.132224 -0.070575 -0.700513
v -0.346955 -0.070575 -0.616021
v -0.659717 -0.070575 -0.243286
v -0.659717 -0.070575 0.243285
v -0.346955 -0.070575 0.616021
v 0.132224 -0.070575 0.700513
v 0.553607 -0.070575 0.457227
v 0.720024 -0.070575 -0.000000
v 0.329610 -0.186219 -0.261570
v 0.088546 -0.186219 -0.400748
v 0.017883 -0.186219 -0.000000
v -0.185582 -0.186219 -0.352412
v -0.364507 -0.186219 -0.139179
v -0.364507 -0.186219 0.139178
v -0.185582 -0.186219 0.352412
v 0.088546 -0.186219 0.400748
v 0.329610 -0.186219 0.261570
v 0.424814 -0.186219 -0.000000
v 0.563445 0.029396 -0.465820
v 0.134142 0.029396 -0.713678
v -0.354042 0.029396 -0.627598
v -0.672682 0.029396 -0.247858
v -0.672682 0.029396 0.247858
v -0.354042 0.029396 0.627598
v 0.134142 0.029396 0.713678
v 0.563445 0.029396 0.465820
v 0.732989 0.029396 -0.000000
v 0.411576 -0.059110 -0.333166
v 0.104529 -0.059110 -0.510439
v 0.014525 -0.059110 -0.000000
v -0.244632 -0.059110 -0.448873
v -0.472531 -0.059110 -0.177274
v -0.472531 -0.059110 0.177274
v -0.244632 -0.059110 0.448873
v 0.104529 -0.059110 0.510439
v 0.411576 -0.059110 0.333166
v 0.532838 -0.059110 -0.000000
vt 0.619694 0.055814
vt 0.527133 0.002374
vt 0.421875 0.020934
vt 0.353173 0.102809
vt 0.353173 0.209691
vt 0.421875 0.291566
vt 0.527133 0.310126
vt 0.619694 0.256686
vt 0.656250 0.156250
vt 0.375000 0.312500
vt 0.402778 0.312500
vt 0.430556 0.312500
vt 0.458333 0.312500
vt 0.486111 0.312500
vt 0.513889 0.312500
vt 0.541667 0.312500
vt 0.569445 0.312500
vt 0.597222 0.312500
vt 0.625000 0.312500
vt 0.375000 0.687500
vt 0.402778 0.687500
vt 0.430556 0.687500
vt 0.458333 0.687500
vt 0.486111 0.687500
vt 0.513889 0.687500
vt 0.541667 0.687500
vt 0.569445 0.687500
vt 0.597222 0.687500
vt 0.625000 0.687500
vt 0.619694 0.743314
vt 0.527133 0.689874
vt 0.421875 0.708434
vt 0.353173 0.790309
vt 0.353173 0.897191
vt 0.421875 0.979066
vt 0.527133 0.997626
vt 0.619694 0.944186
vt 0.656250 0.843750
vt 0.500000 0.156250
vt 0.500000 0.843750
vt 0.527133 0.002374
vt 0.619694 0.055814
vt 0.421875 0.020934
vt 0.353173 0.102809
vt 0.353173 0.209691
vt 0.421875 0.291566
vt 0.527133 0.310126
vt 0.619694 0.256686
vt 0.656250 0.156250
vt 0.527133 0.002374
vt 0.619694 0.055814
vt 0.421875 0.020934
vt 0.353173 0.102809
vt 0.353173 0.209691
vt 0.421875 0.291566
vt 0.527133 0.310126
vt 0.619694 0.256686
vt 0.656250 0.156250
vt 0.619694 0.944186
vt 0.527133 0.997626
vt 0.421875 0.979066
vt 0.353173 0.897191
vt 0.353173 0.790309
vt 0.421875 0.708434
vt 0.527133 0.689874
vt 0.619694 0.743314
vt 0.656250 0.843750
vt 0.619694 0.944186
vt 0.527133 0.997626
vt 0.421875 0.979066
vt 0.353173 0.897191
vt 0.353173 0.790309
vt 0.421875 0.708434
vt 0.527133 0.689874
vt 0.619694 0.743314
vt 0.656250 0.843750
vn 0.188421 -0.926277 -0.326355
vn 0.188723 -0.926031 -0.326878
vn 0.500000 0.000000 -0.866025
vn 0.500000 0.000000 -0.866025
vn -0.064218 -0.929104 -0.364201
vn -0.064336 -0.928834 -0.364868
vn -0.173648 0.000000 -0.984808
vn -0.173648 0.000000 -0.984808
vn -0.278832 -0.931403 -0.233968
vn -0.279167 -0.931232 -0.234249
vn -0.766044 0.000000 -0.642788
vn -0.766044 0.000000 -0.642788
vn -0.361906 -0.932215 -0.000000
vn -0.361906 -0.932215 -0.000000
vn -1.000000 0.000000 -0.000000
vn -1.000000 0.000000 -0.000000
vn -0.279167 -0.931232 0.234249
vn -0.278832 -0.931403 0.233968
vn -0.766044 0.000000 0.642788
vn -0.766044 0.000000 0.642788
vn -0.064336 -0.928834 0.364868
vn -0.064218 -0.929104 0.364201
vn -0.173648 0.000000 0.984808
vn -0.173648 0.000000 0.984808
vn 0.188723 -0.926031 0.326878
vn 0.188421 -0.926277 0.326355
vn 0.500000 0.000000 0.866025
vn 0.500000 0.000000 0.866025
vn 0.358922 -0.924180 0.130637
vn 0.358696 -0.924280 0.130555
vn 0.939693 0.000000 0.342020
vn 0.939693 0.000000 0.342020
vn 0.358696 -0.924280 -0.130555
vn 0.358922 -0.924180 -0.130637
vn 0.939693 0.000000 -0.342020
vn 0.939693 0.000000 -0.342020
vn 0.000000 -1.000000 -0.000000
vn 0.000000 -1.000000 0.000000
vn 0.000000 -1.000000 -0.000000
vn 0.000000 -1.000000 -0.000000
vn 0.000000 -1.000000 -0.000000
vn 0.000000 -1.000000 0.000000
vn 0.000000 -1.000000 0.000000
vn 0.000000 -1.000000 -0.000000
vn 0.000000 -1.000000 -0.000000
vn 0.000000 -1.000000 0.000000
vn 0.000000 1.000000 0.000000
vn 0.000000 1.000000 0.000000
vn 0.000000 1.000000 0.000000
vn 0.000000 1.000000 -0.000000
vn 0.000000 1.000000 -0.000000
vn 0.000000 1.000000 0.000000
vn 0.000000 1.000000 0.000000
vn 0.000000 1.000000 0.000000
vn 0.000000 1.000000 -0.000000
vn 0.000000 1.000000 0.000000
vn 0.102575 -0.978731 -0.177665
vn 0.102575 -0.978731 -0.177665
vn -0.034889 -0.979608 -0.197867
vn -0.034889 -0.979608 -0.197867
vn -0.151170 -0.980335 -0.126847
vn -0.151170 -0.980335 -0.126847
vn -0.195958 -0.980612 -0.000000
vn -0.195958 -0.980612 -0.000000
vn -0.151170 -0.980335 0.126847
vn -0.151170 -0.980335 0.126847
vn -0.034889 -0.979608 0.197867
vn -0.034889 -0.979608 0.197867
vn 0.102575 -0.978731 0.177665
vn 0.102575 -0.978731 0.177665
vn 0.195462 -0.978128 0.071142
vn 0.195462 -0.978128 0.071142
vn 0.195462 -0.978128 -0.071142
vn 0.195462 -0.978128 -0.071142
vn 0.190033 -0.924959 -0.329147
vn 0.190033 -0.924959 -0.329147
vn 0.190033 -0.924959 -0.329147
vn 0.190033 -0.924959 -0.329147
vn -0.064778 -0.927814 -0.367376
vn -0.064778 -0.927814 -0.367376
vn -0.064778 -0.927814 -0.367376
vn -0.064778 -0.927814 -0.367376
vn -0.281186 -0.930196 -0.235943
vn -0.281186 -0.930196 -0.235943
vn -0.281186 -0.930196 -0.235943
vn -0.281186 -0.930196 -0.235943
vn -0.364749 -0.931106 -0.000000
vn -0.364749 -0.931106 -0.000000
vn -0.364749 -0.931106 -0.000000
vn -0.364749 -0.931106 -0.000000
vn -0.281186 -0.930196 0.235943
vn -0.281186 -0.930196 0.235943
vn -0.281186 -0.930196 0.235943
vn -0.281186 -0.930196 0.235943
vn -0.064778 -0.927814 0.367376
vn -0.064778 -0.927814 0.367376
vn -0.064778 -0.927814 0.367376
vn -0.064778 -0.927814 0.367376
vn 0.190033 -0.924959 0.329147
vn 0.190033 -0.924959 0.329147
vn 0.190033 -0.924959 0.329147
vn 0.190033 -0.924959 0.329147
vn 0.361576 -0.923008 0.131603
vn 0.361576 -0.923008 0.131603
vn 0.361576 -0.923008 0.131603
vn 0.361576 -0.923008 0.131603
vn 0.361576 -0.923008 -0.131603
vn 0.361576 -0.923008 -0.131603
vn 0.361576 -0.923008 -0.131603
vn 0.361576 -0.923008 -0.131603
vn 0.000000 1.000000 0.000000
vn 0.000000 1.000000 0.000000
vn 0.000000 1.000000 0.000000
vn 0.000000 1.000000 0.000000
vn 0.000000 1.000000 0.000000
vn 0.000000 1.000000 0.000000
vn 0.000000 1.000000 0.000000
vn 0.000000 1.000000 0.000000
vn 0.000000 1.000000 0.000000
vn 0.000000 1.000000 0.000000
vn 0.000000 1.000000 0.000000
vn 0.000000 1.000000 0.000000
vn 0.000000 1.000000 0.000000
vn 0.000000 1.000000 0.000000
vn 0.000000 1.000000 0.000000
vn 0.000000 1.000000 0.000000
vn 0.000000 1.000000 0.000000
vn 0.000000 1.000000 0.000000
vn 0.000000 1.000000 0.000000
vn 0.000000 1.000000 0.000000
vn 0.000000 1.000000 0.000000
vn 0.000000 1.000000 0.000000
vn 0.000000 1.000000 0.000000
vn 0.000000 1.000000 0.000000
vn 0.000000 1.000000 0.000000
vn 0.000000 1.000000 0.000000
vn 0.000000 1.000000 0.000000
vn 0.000000 1.000000 0.000000
vn 0.000000 1.000000 -0.000000
vn 0.000000 1.000000 -0.000000
vn 0.000000 1.000000 -0.000000
vn 0.000000 1.000000 -0.000000
vn 0.000000 1.000000 0.000000
vn 0.000000 1.000000 0.000000
vn 0.000000 1.000000 0.000000
vn 0.000000 1.000000 0.000000
vn -0.210385 0.907167 0.364398
vn -0.210385 0.907167 0.364398
vn -0.210385 0.907167 0.364398
vn -0.210385 0.907167 0.364398
vn 0.071766 0.910602 0.407006
vn 0.071766 0.910602 0.407006
vn 0.071766 0.910602 0.407006
vn 0.071766 0.910602 0.407006
vn 0.311700 0.913475 0.261548
vn 0.311700 0.913475 0.261548
vn 0.311700 0.913475 0.261548
vn 0.311700 0.913475 0.261548
vn 0.404422 0.914573 0.000000
vn 0.404422 0.914573 0.000000
vn 0.404422 0.914573 0.000000
vn 0.404422 0.914573 0.000000
vn 0.311700 0.913475 -0.261548
vn 0.311700 0.913475 -0.261548
vn 0.311700 0.913475 -0.261548
vn 0.311700 0.913475 -0.261548
vn 0.071766 0.910602 -0.407006
vn 0.071766 0.910602 -0.407006
vn 0.071766 0.910602 -0.407006
vn 0.071766 0.910602 -0.407006
vn -0.210385 0.907167 -0.364398
vn -0.210385 0.907167 -0.364398
vn -0.210385 0.907167 -0.364398
vn -0.210385 0.907167 -0.364398
vn -0.400110 0.904823 -0.145628
vn -0.400110 0.904823 -0.145628
vn -0.400110 0.904823 -0.145628
vn -0.400110 0.904823 -0.145628
vn -0.400110 0.904823 0.145628
vn -0.400110 0.904823 0.145628
vn -0.400110 0.904823 0.145628
vn -0.400110 0.904823 0.145628
s 1
g pCylinder2
usemtl initialShadingGroup
f 1/10/1 2/11/2 11/21/3 10/20/4
s 2
f 2/11/5 3/12/6 12/22/7 11/21/8
s 3
f 3/12/9 4/13/10 13/23/11 12/22/12
s 4
f 4/13/13 5/14/14 14/24/15 13/23/16
s 5
f 5/14/17 6/15/18 15/25/19 14/24/20
s 6
f 6/15/21 7/16/22 16/26/23 15/25/24
s 7
f 7/16/25 8/17/26 17/27/27 16/26/28
s 8
f 8/17/29 9/18/30 18/28/31 17/27/32
s 9
f 9/18/33 1/19/34 10/29/35 18/28/36
s 10
f 29/50/37 28/51/38 30/39/39
f 31/52/40 29/50/37 30/39/39
f 32/53/41 31/52/40 30/39/39
f 33/54/42 32/53/41 30/39/39
f 34/55/43 33/54/42 30/39/39
f 35/56/44 34/55/43 30/39/39
f 36/57/45 35/56/44 30/39/39
f 37/58/46 36/57/45 30/39/39
f 28/51/38 37/58/46 30/39/39
s 11
f 47/68/47 48/69/48 49/40/49
f 48/69/48 50/70/50 49/40/49
f 50/70/50 51/71/51 49/40/49
f 51/71/51 52/72/52 49/40/49
f 52/72/52 53/73/53 49/40/49
f 53/73/53 54/74/54 49/40/49
f 54/74/54 55/75/55 49/40/49
f 55/75/55 56/76/56 49/40/49
f 56/76/56 47/68/47 49/40/49
s 1
f 2/2/2 1/1/1 19/42/57 20/41/58
s 2
f 3/3/6 2/2/5 20/41/59 21/43/60
s 3
f 4/4/10 3/3/9 21/43/61 22/44/62
s 4
f 5/5/14 4/4/13 22/44/63 23/45/64
s 5
f 6/6/18 5/5/17 23/45/65 24/46/66
s 6
f 7/7/22 6/6/21 24/46/67 25/47/68
s 7
f 8/8/26 7/7/25 25/47/69 26/48/70
s 8
f 9/9/30 8/8/29 26/48/71 27/49/72
s 9
f 1/1/34 9/9/33 27/49/73 19/42/74
s off
f 20/41/75 19/42/76 28/51/77 29/50/78
f 21/43/79 20/41/80 29/50/81 31/52/82
f 22/44/83 21/43/84 31/52/85 32/53/86
f 23/45/87 22/44/88 32/53/89 33/54/90
f 24/46/91 23/45/92 33/54/93 34/55/94
f 25/47/95 24/46/96 34/55/97 35/56/98
f 26/48/99 25/47/100 35/56/101 36/57/102
f 27/49/103 26/48/104 36/57/105 37/58/106
f 19/42/107 27/49/108 37/58/109 28/51/110
f 10/37/111 11/36/112 39/60/113 38/59/114
f 11/36/115 12/35/116 40/61/117 39/60/118
f 12/35/119 13/34/120 41/62/121 40/61/122
f 13/34/123 14/33/124 42/63/125 41/62/126
f 14/33/127 15/32/128 43/64/129 42/63/130
f 15/32/131 16/31/132 44/65/133 43/64/134
f 16/31/135 17/30/136 45/66/137 44/65/138
f 17/30/139 18/38/140 46/67/141 45/66/142
f 18/38/143 10/37/144 38/59/145 46/67/146
f 38/59/147 39/60/148 48/69/149 47/68/150
f 39/60/151 40/61/152 50/70/153 48/69/154
f 40/61/155 41/62/156 51/71/157 50/70/158
f 41/62/159 42/63/160 52/72/161 51/71/162
f 42/63/163 43/64/164 53/73/165 52/72/166
f 43/64/167 44/65/168 54/74/169 53/73/170
f 44/65/171 45/66/172 55/75/173 54/74/174
f 45/66/175 46/67/176 56/76/177 55/75/178
f 46/67/179 38/59/180 47/68/181 56/76/182
