# This file uses centimeters as units for non-parametric coordinates.

mtllib Whiteboard.mtl
g default
v 0.243016 -4.247791 6.866988
v 0.301367 -4.247791 6.866988
v 0.274520 4.247791 6.866988
v 0.301367 4.247791 6.866988
v 0.274520 4.247791 -6.866988
v 0.301367 4.247791 -6.866988
v 0.243016 -4.247791 -6.866988
v 0.301367 -4.247791 -6.866988
v 0.243016 -4.247791 7.279941
v 0.301367 -4.247791 7.279941
v 0.301367 4.247791 7.279941
v 0.243016 4.247791 7.279941
v 0.243016 4.247791 -7.279941
v 0.301367 4.247791 -7.279941
v 0.301367 -4.247791 -7.279941
v 0.243016 -4.247791 -7.279941
v 0.274520 4.584062 6.866988
v 0.301367 4.584062 6.866988
v 0.301367 4.584062 -6.866988
v 0.274520 4.584062 -6.866988
v 0.248700 4.584062 7.279941
v 0.301367 4.584062 7.279941
v 0.301367 4.584062 -7.279941
v 0.251458 4.584062 -7.279941
v 0.243016 -4.584062 -6.866988
v 0.301367 -4.584062 -6.866988
v 0.301367 -4.584062 6.866988
v 0.243016 -4.584062 6.866988
v 0.301367 -4.584062 7.279941
v 0.243016 -4.584062 7.279941
v 0.243016 -4.584062 -7.279941
v 0.301367 -4.584062 -7.279941
v 0.479323 -4.247791 6.866988
v 0.479323 4.247791 6.866988
v 0.479323 4.247791 7.279941
v 0.479323 -4.247791 7.279941
v 0.479323 4.247791 -6.866988
v 0.479323 -4.247791 -6.866988
v 0.479323 -4.247791 -7.279941
v 0.479323 4.247791 -7.279941
v 0.479323 4.584062 -6.866988
v 0.479323 4.584062 6.866988
v 0.479323 4.584062 7.279941
v 0.479323 4.584062 -7.279941
v 0.479323 -4.584062 6.866988
v 0.479323 -4.584062 -6.866988
v 0.479323 -4.584062 7.279941
v 0.479323 -4.584062 -7.279941
vt 0.665271 0.974597
vt 0.166473 0.974549
vt 0.166503 0.666002
vt 0.665301 0.666050
vt 0.015050 0.012222
vt 0.513851 0.012240
vt 0.513836 0.320791
vt 0.015041 0.320769
vt 0.015051 0.000009
vt 0.513851 0.000027
vt 0.528849 0.012239
vt 0.528877 0.320787
vt 0.513835 0.333003
vt 0.015041 0.332982
vt 0.000000 0.320765
vt 0.000053 0.012220
vt 0.000054 0.000007
vt 0.528849 0.000026
vt 0.014999 0.345254
vt 0.015022 0.653801
vt 0.000024 0.653802
vt 0.000001 0.345255
vt 0.015023 0.666014
vt 0.000025 0.666015
vt 0.000000 0.333043
vt 0.014998 0.333041
vt 0.513820 0.653763
vt 0.513821 0.665976
vt 0.513796 0.345216
vt 0.513795 0.333003
vt 0.528817 0.653762
vt 0.528818 0.665975
vt 0.528794 0.345215
vt 0.528793 0.333002
vt 0.457644 0.984047
vt 0.457635 0.983072
vt 0.956409 0.978255
vt 0.956419 0.979230
vt 0.442658 0.985336
vt 0.442638 0.983217
vt 0.457572 0.976610
vt 0.956347 0.971793
vt 0.971406 0.978111
vt 0.971618 1.000000
vt 0.442575 0.976754
vt 0.971344 0.971648
vt 0.868972 0.015005
vt 0.871091 0.015005
vt 0.871030 0.513803
vt 0.868911 0.513803
vt 0.868973 0.000007
vt 0.871093 0.000007
vt 0.877554 0.015006
vt 0.877493 0.513804
vt 0.871029 0.528801
vt 0.868909 0.528800
vt 0.877556 0.000008
vt 0.877492 0.528801
vt 0.881170 0.498806
vt 0.881090 0.000008
vt 0.887553 0.000007
vt 0.887633 0.498805
vt 0.889290 0.498806
vt 0.889211 0.000008
vt 0.895674 0.000007
vt 0.895753 0.498805
vt 0.897344 0.012229
vt 0.899463 0.012226
vt 0.899782 0.320773
vt 0.897663 0.320775
vt 0.897332 0.000016
vt 0.899451 0.000014
vt 0.905927 0.012220
vt 0.906245 0.320766
vt 0.899795 0.332986
vt 0.897676 0.332988
vt 0.905914 0.000007
vt 0.906258 0.332979
vt 0.544139 0.008604
vt 0.544142 0.006485
vt 0.852688 0.006856
vt 0.852686 0.008975
vt 0.531902 0.028360
vt 0.531929 0.006470
vt 0.544149 0.000022
vt 0.852696 0.000393
vt 0.864901 0.006871
vt 0.864899 0.008990
vt 0.531937 0.000007
vt 0.864909 0.000408
vt 0.970449 0.000007
vt 0.970455 0.015048
vt 0.958242 0.015053
vt 0.958236 0.000011
vt 0.909513 0.308554
vt 0.909513 0.000007
vt 0.915976 0.000007
vt 0.915976 0.308554
vt 0.917633 0.308554
vt 0.917633 0.000007
vt 0.924096 0.000007
vt 0.924096 0.308554
vt 0.941818 0.000000
vt 0.955863 0.005385
vt 0.951491 0.016788
vt 0.925754 0.016793
vn 0.000000 0.000000 1.000000
vn 0.000000 0.000000 1.000000
vn 0.000000 0.000000 1.000000
vn 0.000000 0.000000 1.000000
vn 0.000000 1.000000 0.000000
vn 0.000000 1.000000 0.000000
vn 0.000000 1.000000 0.000000
vn 0.000000 1.000000 0.000000
vn 0.000000 0.000000 -1.000000
vn 0.000000 0.000000 -1.000000
vn 0.000000 0.000000 -1.000000
vn 0.000000 0.000000 -1.000000
vn 0.000000 -1.000000 0.000000
vn 0.000000 -1.000000 0.000000
vn 0.000000 -1.000000 0.000000
vn 0.000000 -1.000000 0.000000
vn 1.000000 0.000000 0.000000
vn 1.000000 0.000000 0.000000
vn 1.000000 0.000000 0.000000
vn 1.000000 0.000000 0.000000
vn -0.999993 0.003515 0.001071
vn -0.999993 0.003515 -0.001071
vn -0.999993 0.003526 -0.001118
vn -0.999993 0.003530 0.001115
vn 0.000000 -1.000000 0.000000
vn 0.000000 -1.000000 0.000000
vn 1.000000 0.000000 0.000000
vn 1.000000 0.000000 0.000000
vn 1.000000 0.000000 0.000000
vn 1.000000 0.000000 0.000000
vn 0.000000 1.000000 0.000000
vn 0.000000 1.000000 0.000000
vn -0.999326 0.001782 -0.036668
vn -0.999231 0.002072 -0.039157
vn 0.000000 1.000000 0.000000
vn 0.000000 1.000000 0.000000
vn 1.000000 0.000000 0.000000
vn 1.000000 0.000000 0.000000
vn 1.000000 0.000000 0.000000
vn 1.000000 0.000000 0.000000
vn 0.000000 -1.000000 0.000000
vn 0.000000 -1.000000 0.000000
vn -0.999237 0.002186 0.038986
vn -0.999326 0.001782 0.036668
vn 1.000000 0.000000 0.000000
vn 1.000000 0.000000 0.000000
vn -0.999998 0.000247 -0.002026
vn -0.999998 0.000366 0.001929
vn -0.997564 0.008431 -0.069239
vn 0.000000 0.000000 1.000000
vn 0.000000 0.000000 1.000000
vn 1.000000 0.000000 0.000000
vn 1.000000 0.000000 0.000000
vn 0.000000 0.000000 -1.000000
vn 0.000000 0.000000 -1.000000
vn -0.997746 0.012525 0.065919
vn 1.000000 0.000000 0.000000
vn 1.000000 0.000000 0.000000
vn -1.000000 0.000000 0.000000
vn -1.000000 0.000000 0.000000
vn 1.000000 0.000000 0.000000
vn 0.000000 0.000000 1.000000
vn 0.000000 0.000000 1.000000
vn -1.000000 0.000000 0.000000
vn -1.000000 0.000000 0.000000
vn 0.000000 0.000000 -1.000000
vn 0.000000 0.000000 -1.000000
vn 1.000000 0.000000 0.000000
vn 0.000000 0.000000 -1.000000
vn 0.000000 0.000000 -1.000000
vn 0.000000 0.000000 -1.000000
vn 0.000000 0.000000 -1.000000
vn 0.000000 0.000000 1.000000
vn 0.000000 0.000000 1.000000
vn 0.000000 0.000000 1.000000
vn 0.000000 0.000000 1.000000
vn 0.000000 0.000000 1.000000
vn 0.000000 0.000000 1.000000
vn 0.000000 0.000000 -1.000000
vn 0.000000 0.000000 -1.000000
vn 0.000000 -1.000000 0.000000
vn 0.000000 -1.000000 0.000000
vn 0.000000 -1.000000 0.000000
vn 0.000000 -1.000000 0.000000
vn 0.000000 1.000000 0.000000
vn 0.000000 1.000000 0.000000
vn 0.000000 1.000000 0.000000
vn 0.000000 0.000000 1.000000
vn 0.000000 0.000000 -1.000000
vn 0.000000 1.000000 0.000000
vn 0.000000 1.000000 0.000000
vn 0.000000 1.000000 0.000000
vn 0.000000 1.000000 0.000000
vn 0.000000 1.000000 0.000000
vn 0.000000 -1.000000 0.000000
vn 0.000000 -1.000000 0.000000
vn 0.000000 0.000000 1.000000
vn 0.000000 -1.000000 0.000000
vn 0.000000 -1.000000 0.000000
vn 0.000000 0.000000 -1.000000
s 1
g pCube1
usemtl initialShadingGroup
f 9/67/1 10/68/2 11/69/3 12/70/4
s 2
f 17/35/5 18/36/6 19/37/7 20/38/8
s 3
f 13/79/9 14/80/10 15/81/11 16/82/12
s 4
f 25/47/13 26/48/14 27/49/15 28/50/16
s off
f 2/1/17 8/2/18 6/3/19 4/4/20
s 5
f 7/5/21 1/6/22 3/7/23 5/8/24
s 4
f 28/50/16 27/49/15 29/55/25 30/56/26
s 6
f 33/19/27 34/20/28 35/21/29 36/22/30
s 2
f 18/36/6 17/35/5 21/39/31 22/40/32
s 5
f 3/7/23 1/6/22 9/11/33 12/12/34
s 2
f 20/38/8 19/37/7 23/43/35 24/44/36
s 6
f 37/27/37 38/29/38 39/33/39 40/31/40
s 4
f 26/48/14 25/47/13 31/51/41 32/52/42
s 5
f 7/5/21 5/8/24 13/15/43 16/16/44
s 6
f 34/20/28 37/27/37 41/28/45 42/23/46
s 5
f 5/8/24 3/7/23 17/13/47 20/14/48
f 3/91/23 12/92/34 21/93/49 17/94/47
s 1
f 12/70/4 11/69/3 22/75/50 21/76/51
s 6
f 35/21/29 34/20/28 42/23/46 43/24/52
f 37/27/37 40/31/40 44/32/53 41/28/45
s 3
f 14/80/10 13/79/9 24/83/54 23/84/55
s 5
f 13/103/43 5/104/24 20/105/48 24/106/56
s 6
f 38/29/38 33/19/27 45/26/57 46/30/58
s 5
f 1/6/22 7/5/21 25/9/59 28/10/60
s 6
f 33/19/27 36/22/30 47/25/61 45/26/57
s 1
f 10/68/2 9/67/1 30/71/62 29/72/63
s 5
f 9/11/33 1/6/22 28/10/60 30/18/64
f 7/5/21 16/16/44 31/17/65 25/9/59
s 3
f 16/82/12 15/81/11 32/87/66 31/88/67
s 6
f 39/33/39 38/29/38 46/30/58 48/34/68
s off
f 2/95/69 4/96/70 34/97/71 33/98/72
s 1
f 11/69/3 10/68/2 36/73/73 35/74/74
s off
f 6/99/75 8/100/76 38/101/77 37/102/78
s 3
f 15/81/11 14/80/10 40/85/79 39/86/80
s off
f 4/59/81 6/60/82 37/61/83 34/62/84
s 2
f 19/37/7 18/36/6 42/41/85 41/42/86
f 18/36/6 22/40/32 43/45/87 42/41/85
s 1
f 22/75/50 11/69/3 35/74/74 43/78/88
s 3
f 14/80/10 23/84/55 44/89/89 40/85/79
s 2
f 23/43/35 19/37/7 41/42/86 44/46/90
s off
f 8/63/91 2/64/92 33/65/93 38/66/94
s 4
f 27/49/15 26/48/14 46/53/95 45/54/96
s 1
f 10/68/2 29/72/63 47/77/97 36/73/73
s 4
f 29/55/25 27/49/15 45/54/96 47/58/98
f 26/48/14 32/52/42 48/57/99 46/53/95
s 3
f 32/87/66 15/81/11 39/86/80 48/90/100
g default
v 0.318154 0.044340 3.322431
v 0.349697 0.044340 3.322431
v 0.318154 0.453819 3.255417
v 0.349697 0.453819 3.255417
v 0.318154 0.114393 1.181375
v 0.349697 0.114393 1.181375
v 0.318154 -0.295087 1.248388
v 0.349697 -0.295087 1.248388
v 0.426393 -0.868912 1.342297
v 0.457936 -0.868912 1.342297
v 0.457936 -0.529486 3.416340
v 0.426393 -0.529486 3.416340
v 0.579930 -1.385657 1.426865
v 0.611474 -1.385657 1.426865
v 0.611474 -1.046231 3.500907
v 0.579930 -1.046231 3.500907
v 0.702124 -1.796468 1.494096
v 0.733668 -1.796468 1.494096
v 0.733668 -1.457042 3.568138
v 0.702124 -1.457042 3.568138
vt 0.390173 0.498145
vt 0.390173 0.001992
vt 0.488129 0.001992
vt 0.488129 0.498145
vt 0.252903 0.498145
vt 0.252903 0.001992
vt 0.129287 0.498145
vt 0.129287 0.001992
vt 0.031012 0.498145
vt 0.031012 0.001992
vt 0.829531 0.998008
vt 0.829531 0.501855
vt 0.927487 0.501855
vt 0.927487 0.998008
vt 0.692261 0.998008
vt 0.692261 0.501855
vt 0.568645 0.998008
vt 0.568645 0.501855
vt 0.470370 0.998008
vt 0.470370 0.501855
vt 0.001851 0.001992
vt 0.009298 0.001992
vt 0.009298 0.498145
vt 0.001851 0.498145
vt 0.016522 0.001992
vt 0.023969 0.001992
vt 0.023969 0.498145
vt 0.016522 0.498145
vt 0.366574 0.861016
vt 0.374021 0.861016
vt 0.374021 0.958972
vt 0.366574 0.958972
vt 0.392127 0.723745
vt 0.399574 0.723745
vt 0.428374 0.600129
vt 0.435821 0.600129
vt 0.457222 0.501855
vt 0.464668 0.501855
vt 0.262778 0.501855
vt 0.270224 0.501855
vt 0.270224 0.599811
vt 0.262778 0.599811
vt 0.295777 0.737081
vt 0.288331 0.737081
vt 0.332025 0.860697
vt 0.324578 0.860697
vt 0.360872 0.958972
vt 0.353425 0.958972
vn 0.000000 0.161506 0.986872
vn 0.000000 0.161506 0.986872
vn 0.000000 0.161507 0.986872
vn 0.000000 0.161507 0.986872
vn 0.000000 0.986872 -0.161506
vn 0.000000 0.986872 -0.161506
vn 0.000000 0.986872 -0.161506
vn 0.000000 0.986872 -0.161506
vn 0.000000 -0.161507 -0.986872
vn 0.000000 -0.161507 -0.986872
vn 0.000000 -0.161506 -0.986872
vn 0.000000 -0.161506 -0.986872
vn 0.000000 -0.986872 0.161506
vn 0.000000 -0.986872 0.161506
vn 0.000000 -0.986872 0.161506
vn 0.000000 -0.986872 0.161506
vn 0.994151 0.106579 -0.017442
vn 0.994151 0.106579 -0.017442
vn 1.000000 0.000000 0.000000
vn 1.000000 0.000000 0.000000
vn -0.994151 -0.106578 0.017442
vn -0.994151 -0.106579 0.017442
vn -1.000000 0.000000 0.000000
vn -1.000000 0.000000 0.000000
vn 0.000000 -0.161506 -0.986872
vn 0.000000 -0.161506 -0.986872
vn 0.973071 0.227480 -0.037228
vn 0.973071 0.227480 -0.037228
vn 0.000000 0.161506 0.986872
vn 0.000000 0.161506 0.986872
vn -0.973071 -0.227480 0.037228
vn -0.973071 -0.227480 0.037228
vn 0.000000 -0.161506 -0.986872
vn 0.000000 -0.161506 -0.986872
vn 0.959561 0.277805 -0.045464
vn 0.959561 0.277805 -0.045464
vn 0.000000 0.161506 0.986872
vn 0.000000 0.161506 0.986872
vn -0.959561 -0.277805 0.045464
vn -0.959561 -0.277805 0.045464
vn 0.000000 -0.161506 -0.986872
vn 0.000000 -0.161506 -0.986872
vn 0.959515 0.277959 -0.045489
vn 0.959515 0.277959 -0.045489
vn 0.000000 0.161506 0.986872
vn 0.000000 0.161506 0.986872
vn -0.959515 -0.277959 0.045489
vn -0.959515 -0.277959 0.045489
s 1
g pCube2
usemtl initialShadingGroup
f 49/135/101 50/136/102 52/137/103 51/138/104
s off
f 51/127/105 52/128/106 54/129/107 53/130/108
s 2
f 53/145/109 54/146/110 56/147/111 55/148/112
s off
f 65/131/113 66/132/114 67/133/115 68/134/116
s 3
f 50/107/117 56/108/118 54/109/119 52/110/120
s 4
f 55/117/121 49/118/122 51/119/123 53/120/124
s 2
f 55/148/112 56/147/111 58/149/125 57/150/126
s 3
f 56/108/118 50/107/117 59/111/127 58/112/128
s 1
f 50/136/102 49/135/101 60/139/129 59/140/130
s 4
f 49/118/122 55/117/121 57/121/131 60/122/132
s 2
f 57/150/126 58/149/125 62/151/133 61/152/134
s 3
f 58/112/128 59/111/127 63/113/135 62/114/136
s 1
f 59/140/130 60/139/129 64/141/137 63/142/138
s 4
f 60/122/132 57/121/131 61/123/139 64/124/140
s 2
f 61/152/134 62/151/133 66/153/141 65/154/142
s 3
f 62/114/136 63/113/135 67/115/143 66/116/144
s 1
f 63/142/138 64/141/137 68/143/145 67/144/146
s 4
f 64/124/140 61/123/139 65/125/147 68/126/148
g default
v 0.318154 -0.584442 -2.179251
v 0.349697 -0.584442 -2.179251
v 0.318154 -0.173371 -2.122817
v 0.349697 -0.173371 -2.122817
v 0.318154 0.112470 -4.204921
v 0.349697 0.112470 -4.204921
v 0.318154 -0.298601 -4.261355
v 0.349697 -0.298601 -4.261355
v 0.426393 -0.874657 -4.340438
v 0.457936 -0.874657 -4.340438
v 0.457936 -1.160498 -2.258334
v 0.426393 -1.160498 -2.258334
v 0.579930 -1.393410 -4.411655
v 0.611474 -1.393410 -4.411655
v 0.611474 -1.679251 -2.329551
v 0.579930 -1.679251 -2.329551
v 0.702124 -1.805818 -4.468273
v 0.733668 -1.805818 -4.468273
v 0.733668 -2.091659 -2.386169
v 0.702124 -2.091659 -2.386169
vt 0.390173 0.498145
vt 0.390173 0.001992
vt 0.488129 0.001992
vt 0.488129 0.498145
vt 0.252903 0.498145
vt 0.252903 0.001992
vt 0.129287 0.498145
vt 0.129287 0.001992
vt 0.031012 0.498145
vt 0.031012 0.001992
vt 0.829531 0.998008
vt 0.829531 0.501855
vt 0.927487 0.501855
vt 0.927487 0.998008
vt 0.692261 0.998008
vt 0.692261 0.501855
vt 0.568645 0.998008
vt 0.568645 0.501855
vt 0.470370 0.998008
vt 0.470370 0.501855
vt 0.001851 0.001992
vt 0.009298 0.001992
vt 0.009298 0.498145
vt 0.001851 0.498145
vt 0.016522 0.001992
vt 0.023969 0.001992
vt 0.023969 0.498145
vt 0.016522 0.498145
vt 0.366574 0.861016
vt 0.374021 0.861016
vt 0.374021 0.958972
vt 0.366574 0.958972
vt 0.392127 0.723745
vt 0.399574 0.723745
vt 0.428374 0.600129
vt 0.435821 0.600129
vt 0.457222 0.501855
vt 0.464668 0.501855
vt 0.262778 0.501855
vt 0.270224 0.501855
vt 0.270224 0.599811
vt 0.262778 0.599811
vt 0.295777 0.737081
vt 0.288331 0.737081
vt 0.332025 0.860697
vt 0.324578 0.860697
vt 0.360872 0.958972
vt 0.353425 0.958972
vn 0.000000 -0.136009 0.990708
vn 0.000000 -0.136009 0.990708
vn 0.000000 -0.136008 0.990708
vn 0.000000 -0.136008 0.990708
vn 0.000000 0.990708 0.136009
vn 0.000000 0.990708 0.136009
vn 0.000000 0.990708 0.136009
vn 0.000000 0.990708 0.136009
vn 0.000000 0.136008 -0.990708
vn 0.000000 0.136008 -0.990708
vn 0.000000 0.136009 -0.990708
vn 0.000000 0.136009 -0.990708
vn 0.000000 -0.990708 -0.136009
vn 0.000000 -0.990708 -0.136009
vn 0.000000 -0.990708 -0.136009
vn 0.000000 -0.990708 -0.136009
vn 0.994151 0.106993 0.014688
vn 0.994151 0.106993 0.014688
vn 1.000000 -0.000000 -0.000000
vn 1.000000 -0.000000 -0.000000
vn -0.994151 -0.106993 -0.014688
vn -0.994151 -0.106993 -0.014688
vn -1.000000 0.000000 0.000000
vn -1.000000 0.000000 0.000000
vn 0.000000 0.136009 -0.990708
vn 0.000000 0.136009 -0.990708
vn 0.973071 0.228364 0.031351
vn 0.973071 0.228364 0.031351
vn 0.000000 -0.136009 0.990708
vn 0.000000 -0.136009 0.990708
vn -0.973071 -0.228364 -0.031351
vn -0.973071 -0.228364 -0.031351
vn 0.000000 0.136009 -0.990708
vn 0.000000 0.136009 -0.990708
vn 0.959561 0.278885 0.038287
vn 0.959561 0.278885 0.038287
vn 0.000000 -0.136009 0.990708
vn 0.000000 -0.136009 0.990708
vn -0.959561 -0.278885 -0.038287
vn -0.959561 -0.278885 -0.038287
vn 0.000000 0.136009 -0.990708
vn 0.000000 0.136009 -0.990708
vn 0.959515 0.279040 0.038308
vn 0.959515 0.279040 0.038308
vn 0.000000 -0.136009 0.990708
vn 0.000000 -0.136009 0.990708
vn -0.959515 -0.279040 -0.038308
vn -0.959515 -0.279040 -0.038308
s 1
g pasted__pCube2 group
usemtl initialShadingGroup
f 69/183/149 70/184/150 72/185/151 71/186/152
s off
f 71/175/153 72/176/154 74/177/155 73/178/156
s 2
f 73/193/157 74/194/158 76/195/159 75/196/160
s off
f 85/179/161 86/180/162 87/181/163 88/182/164
s 3
f 70/155/165 76/156/166 74/157/167 72/158/168
s 4
f 75/165/169 69/166/170 71/167/171 73/168/172
s 2
f 75/196/160 76/195/159 78/197/173 77/198/174
s 3
f 76/156/166 70/155/165 79/159/175 78/160/176
s 1
f 70/184/150 69/183/149 80/187/177 79/188/178
s 4
f 69/166/170 75/165/169 77/169/179 80/170/180
s 2
f 77/198/174 78/197/173 82/199/181 81/200/182
s 3
f 78/160/176 79/159/175 83/161/183 82/162/184
s 1
f 79/188/178 80/187/177 84/189/185 83/190/186
s 4
f 80/170/180 77/169/179 81/171/187 84/172/188
s 2
f 81/200/182 82/199/181 86/201/189 85/202/190
s 3
f 82/162/184 83/161/183 87/163/191 86/164/192
s 1
f 83/190/186 84/189/185 88/191/193 87/192/194
s 4
f 84/172/188 81/171/187 85/173/195 88/174/196
g default
v 0.318154 2.535878 0.739916
v 0.349697 2.535878 0.739916
v 0.318154 2.948523 0.696461
v 0.349697 2.948523 0.696461
v 0.318154 2.728421 -1.393615
v 0.349697 2.728421 -1.393615
v 0.318154 2.315776 -1.350160
v 0.349697 2.315776 -1.350160
v 0.426393 1.737515 -1.289264
v 0.457936 1.737515 -1.289264
v 0.457936 1.957617 0.800812
v 0.426393 1.957617 0.800812
v 0.579930 1.216775 -1.234426
v 0.611474 1.216775 -1.234426
v 0.611474 1.436877 0.855650
v 0.579930 1.436877 0.855650
v 0.702124 0.802788 -1.190830
v 0.733668 0.802788 -1.190830
v 0.733668 1.022890 0.899246
v 0.702124 1.022890 0.899246
vt 0.390173 0.498145
vt 0.390173 0.001992
vt 0.488129 0.001992
vt 0.488129 0.498145
vt 0.252903 0.498145
vt 0.252903 0.001992
vt 0.129287 0.498145
vt 0.129287 0.001992
vt 0.031012 0.498145
vt 0.031012 0.001992
vt 0.829531 0.998008
vt 0.829531 0.501855
vt 0.927487 0.501855
vt 0.927487 0.998008
vt 0.692261 0.998008
vt 0.692261 0.501855
vt 0.568645 0.998008
vt 0.568645 0.501855
vt 0.470370 0.998008
vt 0.470370 0.501855
vt 0.001851 0.001992
vt 0.009298 0.001992
vt 0.009298 0.498145
vt 0.001851 0.498145
vt 0.016522 0.001992
vt 0.023969 0.001992
vt 0.023969 0.498145
vt 0.016522 0.498145
vt 0.366574 0.861016
vt 0.374021 0.861016
vt 0.374021 0.958972
vt 0.366574 0.958972
vt 0.392127 0.723745
vt 0.399574 0.723745
vt 0.428374 0.600129
vt 0.435821 0.600129
vt 0.457222 0.501855
vt 0.464668 0.501855
vt 0.262778 0.501855
vt 0.270224 0.501855
vt 0.270224 0.599811
vt 0.262778 0.599811
vt 0.295777 0.737081
vt 0.288331 0.737081
vt 0.332025 0.860697
vt 0.324578 0.860697
vt 0.360872 0.958972
vt 0.353425 0.958972
vn 0.000000 0.104729 0.994501
vn 0.000000 0.104729 0.994501
vn 0.000000 0.104730 0.994501
vn 0.000000 0.104730 0.994501
vn 0.000000 0.994501 -0.104729
vn 0.000000 0.994501 -0.104729
vn 0.000000 0.994501 -0.104729
vn 0.000000 0.994501 -0.104729
vn 0.000000 -0.104730 -0.994501
vn 0.000000 -0.104730 -0.994501
vn 0.000000 -0.104729 -0.994501
vn 0.000000 -0.104729 -0.994501
vn 0.000000 -0.994501 0.104729
vn 0.000000 -0.994501 0.104729
vn 0.000000 -0.994501 0.104729
vn 0.000000 -0.994501 0.104729
vn 0.994151 0.107402 -0.011310
vn 0.994151 0.107402 -0.011310
vn 1.000000 -0.000000 0.000000
vn 1.000000 -0.000000 0.000000
vn -0.994151 -0.107402 0.011310
vn -0.994151 -0.107402 0.011310
vn -1.000000 0.000000 0.000000
vn -1.000000 0.000000 0.000000
vn 0.000000 -0.104729 -0.994501
vn 0.000000 -0.104729 -0.994501
vn 0.973071 0.229239 -0.024141
vn 0.973071 0.229239 -0.024141
vn 0.000000 0.104729 0.994501
vn 0.000000 0.104729 0.994501
vn -0.973071 -0.229238 0.024141
vn -0.973071 -0.229238 0.024141
vn 0.000000 -0.104729 -0.994501
vn 0.000000 -0.104729 -0.994501
vn 0.959561 0.279953 -0.029481
vn 0.959561 0.279953 -0.029481
vn 0.000000 0.104729 0.994501
vn 0.000000 0.104729 0.994501
vn -0.959561 -0.279953 0.029481
vn -0.959561 -0.279953 0.029481
vn 0.000000 -0.104729 -0.994501
vn 0.000000 -0.104729 -0.994501
vn 0.959515 0.280108 -0.029498
vn 0.959515 0.280108 -0.029498
vn 0.000000 0.104729 0.994501
vn 0.000000 0.104729 0.994501
vn -0.959515 -0.280108 0.029498
vn -0.959515 -0.280108 0.029498
s 1
g pasted__pCube2 group1
usemtl initialShadingGroup
f 89/231/197 90/232/198 92/233/199 91/234/200
s off
f 91/223/201 92/224/202 94/225/203 93/226/204
s 2
f 93/241/205 94/242/206 96/243/207 95/244/208
s off
f 105/227/209 106/228/210 107/229/211 108/230/212
s 3
f 90/203/213 96/204/214 94/205/215 92/206/216
s 4
f 95/213/217 89/214/218 91/215/219 93/216/220
s 2
f 95/244/208 96/243/207 98/245/221 97/246/222
s 3
f 96/204/214 90/203/213 99/207/223 98/208/224
s 1
f 90/232/198 89/231/197 100/235/225 99/236/226
s 4
f 89/214/218 95/213/217 97/217/227 100/218/228
s 2
f 97/246/222 98/245/221 102/247/229 101/248/230
s 3
f 98/208/224 99/207/223 103/209/231 102/210/232
s 1
f 99/236/226 100/235/225 104/237/233 103/238/234
s 4
f 100/218/228 97/217/227 101/219/235 104/220/236
s 2
f 101/248/230 102/247/229 106/249/237 105/250/238
s 3
f 102/210/232 103/209/231 107/211/239 106/212/240
s 1
f 103/238/234 104/237/233 108/239/241 107/240/242
s 4
f 104/220/236 101/219/235 105/221/243 108/222/244
