# This file uses centimeters as units for non-parametric coordinates.

mtllib Microwave.mtl
g default
v -1.039657 -0.454585 0.654376
v 0.925278 -0.454585 0.654376
v -1.039657 0.545415 0.654376
v 0.925278 0.545415 0.654376
v -1.039657 0.545415 -0.668813
v 0.925278 0.545415 -0.668813
v -1.039657 -0.454585 -0.668813
v 0.925278 -0.454585 -0.668813
v -0.951093 -0.324308 0.654376
v 0.893110 -0.324308 0.654376
v 0.893110 0.475657 0.654376
v -0.951093 0.475657 0.654376
v -0.951093 -0.324308 0.640865
v 0.893111 -0.324308 0.640865
v 0.893111 0.475657 0.640865
v -0.951093 0.475657 0.640865
vt 0.311252 0.047299
vt 0.649864 0.046163
vt 0.650332 0.227035
vt 0.313110 0.226509
vt 0.294854 0.239206
vt 0.654498 0.241715
vt 0.296629 0.244745
vt 0.656229 0.482170
vt 0.131007 0.245190
vt 0.651904 0.695766
vt 0.655626 0.023508
vt 0.295073 0.023656
vt 0.649872 0.045727
vt 0.310320 0.046838
vt 0.650337 0.226983
vt 0.312143 0.226455
vt 0.311252 0.047299
vt 0.311252 0.047299
vt 0.313110 0.226509
vt 0.313110 0.226509
vt 0.650332 0.227035
vt 0.650332 0.227035
vt 0.312143 0.226455
vt 0.312143 0.226455
vt 0.312143 0.226455
vt 0.649864 0.046163
vt 0.649864 0.046163
vt 0.650337 0.226983
vt 0.650337 0.226983
vt 0.650337 0.226983
vt 0.649872 0.045727
vt 0.649872 0.045727
vt 0.649872 0.045727
vt 0.310320 0.046838
vt 0.310320 0.046838
vt 0.310320 0.046838
vt 0.656282 0.476462
vt 0.657558 0.480174
vt 0.294854 0.241535
vt 0.297915 0.479196
vt 0.296704 0.478664
vt 0.654498 0.239386
vt 0.131810 0.478799
vt 0.297818 0.917552
vt 0.655626 0.023508
vt 0.649789 0.923802
vt 0.836051 0.477403
vt 0.295073 0.023656
vt 0.297991 0.690452
vt 0.299258 0.691616
vt 0.655616 0.694613
vt 0.836391 0.242175
vt 0.297581 0.243275
vt 0.299619 0.481269
vt 0.657463 0.244184
vt 0.656498 0.242395
vn 0.000000 0.000000 1.000000
vn 0.000000 0.000000 1.000000
vn 0.000000 0.000000 1.000000
vn 0.000000 0.000000 1.000000
vn 0.000000 1.000000 0.000000
vn 0.000000 1.000000 0.000000
vn 0.000000 1.000000 0.000000
vn 0.000000 1.000000 0.000000
vn 0.000000 0.000000 -1.000000
vn 0.000000 0.000000 -1.000000
vn 0.000000 0.000000 -1.000000
vn 0.000000 0.000000 -1.000000
vn 0.000000 -1.000000 0.000000
vn 0.000000 -1.000000 0.000000
vn 0.000000 -1.000000 0.000000
vn 0.000000 -1.000000 0.000000
vn 1.000000 0.000000 0.000000
vn 1.000000 0.000000 0.000000
vn 1.000000 0.000000 0.000000
vn 1.000000 0.000000 0.000000
vn -1.000000 0.000000 0.000000
vn -1.000000 0.000000 0.000000
vn -1.000000 0.000000 0.000000
vn -1.000000 0.000000 0.000000
vn 0.000000 0.000000 1.000000
vn 0.000000 0.000000 1.000000
vn 0.000000 0.000000 1.000000
vn 0.000000 0.000000 1.000000
vn -0.000001 0.000000 1.000000
vn -0.000001 0.000000 1.000000
vn -0.000001 0.000000 1.000000
vn -0.000001 0.000000 1.000000
vn 0.000000 0.000000 1.000000
vn 0.000000 0.000000 1.000000
vn 0.000000 0.000000 1.000000
vn 0.000000 0.000000 1.000000
vn 0.000000 0.000000 1.000000
vn 0.000000 0.000000 1.000000
vn 0.000000 0.000000 1.000000
vn 0.000000 0.000000 1.000000
vn 0.000000 1.000000 -0.000000
vn 0.000000 1.000000 -0.000000
vn 0.000000 1.000000 -0.000000
vn 0.000000 1.000000 -0.000000
vn -1.000000 0.000000 -0.000013
vn -1.000000 0.000000 -0.000013
vn -1.000000 0.000000 -0.000013
vn -1.000000 0.000000 -0.000013
vn 0.000000 -1.000000 0.000001
vn 0.000000 -1.000000 0.000001
vn 0.000000 -1.000000 0.000001
vn 0.000000 -1.000000 0.000001
vn 1.000000 0.000000 0.000013
vn 1.000000 0.000000 0.000013
vn 1.000000 0.000000 0.000013
vn 1.000000 0.000000 0.000013
s off
g pCube2
usemtl lambert2SG
f 13/1/1 14/27/2 15/22/3 16/20/4
f 3/38/5 4/40/6 6/53/7 5/55/8
f 5/8/9 6/54/10 8/49/11 7/51/12
f 7/10/13 8/50/14 2/44/15 1/46/16
f 2/43/17 8/9/18 6/7/19 4/41/20
f 7/52/21 1/47/22 3/37/23 5/56/24
f 1/12/25 2/45/26 10/32/27 9/34/28
f 2/11/29 4/42/30 11/29/31 10/31/32
f 4/6/33 3/39/34 12/24/35 11/28/36
f 3/5/37 1/48/38 9/35/39 12/23/40
f 9/14/41 10/33/42 14/26/43 13/17/44
f 10/13/45 11/30/46 15/21/47 14/2/48
f 11/15/49 12/25/50 16/19/51 15/3/52
f 12/16/53 9/36/54 13/18/55 16/4/56
g default
v 0.675718 0.151870 0.604405
v 0.675768 0.204058 0.603068
v 0.673795 0.153207 0.656558
v 0.673844 0.205396 0.655221
v 0.621625 0.153207 0.654634
v 0.621674 0.205396 0.653297
v 0.623548 0.151870 0.602481
v 0.623597 0.204058 0.601144
vt 0.375000 0.000000
vt 0.625000 0.000000
vt 0.375000 0.250000
vt 0.625000 0.250000
vt 0.375000 0.500000
vt 0.625000 0.500000
vt 0.375000 0.750000
vt 0.625000 0.750000
vt 0.375000 1.000000
vt 0.625000 1.000000
vt 0.875000 0.000000
vt 0.875000 0.250000
vt 0.125000 0.000000
vt 0.125000 0.250000
vn 0.999321 0.000000 0.036852
vn 0.999321 0.000000 0.036852
vn 0.999321 0.000000 0.036852
vn 0.999321 0.000000 0.036852
vn -0.036840 0.025625 0.998993
vn -0.036840 0.025625 0.998993
vn -0.036840 0.025625 0.998993
vn -0.036840 0.025625 0.998993
vn -0.999321 -0.000000 -0.036852
vn -0.999321 -0.000000 -0.036852
vn -0.999321 -0.000000 -0.036852
vn -0.999321 -0.000000 -0.036852
vn 0.036840 -0.025625 -0.998993
vn 0.036840 -0.025625 -0.998993
vn 0.036840 -0.025625 -0.998993
vn 0.036840 -0.025625 -0.998993
vn 0.000944 0.999672 -0.025607
vn 0.000944 0.999672 -0.025607
vn 0.000944 0.999672 -0.025607
vn 0.000944 0.999672 -0.025607
vn -0.000944 -0.999672 0.025607
vn -0.000944 -0.999672 0.025607
vn -0.000944 -0.999672 0.025607
vn -0.000944 -0.999672 0.025607
s off
g pCube3
usemtl lambert4SG
f 17/57/57 18/58/58 20/60/59 19/59/60
f 19/59/61 20/60/62 22/62/63 21/61/64
f 21/61/65 22/62/66 24/64/67 23/63/68
f 23/63/69 24/64/70 18/66/71 17/65/72
f 18/58/73 24/67/74 22/68/75 20/60/76
f 23/69/77 17/57/78 19/59/79 21/70/80
g default
v 0.692325 0.151088 0.604274
v 0.744531 0.151088 0.604274
v 0.692325 0.154056 0.656396
v 0.744531 0.154056 0.656396
v 0.692325 0.206178 0.653428
v 0.744531 0.206178 0.653428
v 0.692325 0.203210 0.601306
v 0.744531 0.203210 0.601306
vt 0.375000 0.000000
vt 0.625000 0.000000
vt 0.375000 0.250000
vt 0.625000 0.250000
vt 0.375000 0.500000
vt 0.625000 0.500000
vt 0.375000 0.750000
vt 0.625000 0.750000
vt 0.375000 1.000000
vt 0.625000 1.000000
vt 0.875000 0.000000
vt 0.875000 0.250000
vt 0.125000 0.000000
vt 0.125000 0.250000
vn 0.000000 -0.998383 0.056851
vn 0.000000 -0.998383 0.056851
vn 0.000000 -0.998383 0.056851
vn 0.000000 -0.998383 0.056851
vn 0.000000 0.056851 0.998383
vn 0.000000 0.056851 0.998383
vn 0.000000 0.056851 0.998383
vn 0.000000 0.056851 0.998383
vn 0.000000 0.998383 -0.056851
vn 0.000000 0.998383 -0.056851
vn 0.000000 0.998383 -0.056851
vn 0.000000 0.998383 -0.056851
vn 0.000000 -0.056851 -0.998383
vn 0.000000 -0.056851 -0.998383
vn 0.000000 -0.056851 -0.998383
vn 0.000000 -0.056851 -0.998383
vn 1.000000 0.000000 0.000000
vn 1.000000 0.000000 0.000000
vn 1.000000 0.000000 0.000000
vn 1.000000 0.000000 0.000000
vn -1.000000 0.000000 0.000000
vn -1.000000 0.000000 0.000000
vn -1.000000 0.000000 0.000000
vn -1.000000 0.000000 0.000000
s off
g pCube4
usemtl lambert4SG
f 25/71/81 26/72/82 28/74/83 27/73/84
f 27/73/85 28/74/86 30/76/87 29/75/88
f 29/75/89 30/76/90 32/78/91 31/77/92
f 31/77/93 32/78/94 26/80/95 25/79/96
f 26/72/97 32/81/98 30/82/99 28/74/100
f 31/83/101 25/71/102 27/73/103 29/84/104
g default
v 0.767027 0.149814 0.605782
v 0.819233 0.149814 0.605782
v 0.767027 0.155564 0.657670
v 0.819233 0.155564 0.657670
v 0.767027 0.207452 0.651920
v 0.819233 0.207452 0.651920
v 0.767027 0.201702 0.600032
v 0.819233 0.201702 0.600032
vt 0.375000 0.000000
vt 0.625000 0.000000
vt 0.375000 0.250000
vt 0.625000 0.250000
vt 0.375000 0.500000
vt 0.625000 0.500000
vt 0.375000 0.750000
vt 0.625000 0.750000
vt 0.375000 1.000000
vt 0.625000 1.000000
vt 0.875000 0.000000
vt 0.875000 0.250000
vt 0.125000 0.000000
vt 0.125000 0.250000
vn 0.000000 -0.993916 0.110144
vn 0.000000 -0.993916 0.110144
vn 0.000000 -0.993916 0.110144
vn 0.000000 -0.993916 0.110144
vn 0.000000 0.110144 0.993916
vn 0.000000 0.110144 0.993916
vn 0.000000 0.110144 0.993916
vn 0.000000 0.110144 0.993916
vn 0.000000 0.993916 -0.110144
vn 0.000000 0.993916 -0.110144
vn 0.000000 0.993916 -0.110144
vn 0.000000 0.993916 -0.110144
vn 0.000000 -0.110144 -0.993916
vn 0.000000 -0.110144 -0.993916
vn 0.000000 -0.110144 -0.993916
vn 0.000000 -0.110144 -0.993916
vn 1.000000 0.000000 0.000000
vn 1.000000 0.000000 0.000000
vn 1.000000 0.000000 0.000000
vn 1.000000 0.000000 0.000000
vn -1.000000 0.000000 0.000000
vn -1.000000 0.000000 0.000000
vn -1.000000 0.000000 0.000000
vn -1.000000 0.000000 0.000000
s off
g pCube5
usemtl lambert4SG
f 33/85/105 34/86/106 36/88/107 35/87/108
f 35/87/109 36/88/110 38/90/111 37/89/112
f 37/89/113 38/90/114 40/92/115 39/91/116
f 39/91/117 40/92/118 34/94/119 33/93/120
f 34/86/121 40/95/122 38/96/123 36/88/124
f 39/97/125 33/85/126 35/87/127 37/98/128
g default
v 0.767027 0.079134 0.604961
v 0.819233 0.079134 0.604961
v 0.767027 0.083386 0.656993
v 0.819233 0.083386 0.656993
v 0.767027 0.135419 0.652741
v 0.819233 0.135419 0.652741
v 0.767027 0.131167 0.600709
v 0.819233 0.131167 0.600709
vt 0.375000 0.000000
vt 0.625000 0.000000
vt 0.375000 0.250000
vt 0.625000 0.250000
vt 0.375000 0.500000
vt 0.625000 0.500000
vt 0.375000 0.750000
vt 0.625000 0.750000
vt 0.375000 1.000000
vt 0.625000 1.000000
vt 0.875000 0.000000
vt 0.875000 0.250000
vt 0.125000 0.000000
vt 0.125000 0.250000
vn 0.000000 -0.996678 0.081441
vn 0.000000 -0.996678 0.081441
vn 0.000000 -0.996678 0.081441
vn 0.000000 -0.996678 0.081441
vn 0.000000 0.081441 0.996678
vn 0.000000 0.081441 0.996678
vn 0.000000 0.081441 0.996678
vn 0.000000 0.081441 0.996678
vn 0.000000 0.996678 -0.081441
vn 0.000000 0.996678 -0.081441
vn 0.000000 0.996678 -0.081441
vn 0.000000 0.996678 -0.081441
vn 0.000000 -0.081441 -0.996678
vn 0.000000 -0.081441 -0.996678
vn 0.000000 -0.081441 -0.996678
vn 0.000000 -0.081441 -0.996678
vn 1.000000 0.000000 0.000000
vn 1.000000 0.000000 0.000000
vn 1.000000 0.000000 0.000000
vn 1.000000 0.000000 0.000000
vn -1.000000 0.000000 0.000000
vn -1.000000 0.000000 0.000000
vn -1.000000 0.000000 0.000000
vn -1.000000 0.000000 0.000000
s off
g pCube6
usemtl lambert4SG
f 41/99/129 42/100/130 44/102/131 43/101/132
f 43/101/133 44/102/134 46/104/135 45/103/136
f 45/103/137 46/104/138 48/106/139 47/105/140
f 47/105/141 48/106/142 42/108/143 41/107/144
f 42/100/145 48/109/146 46/110/147 44/102/148
f 47/111/149 41/99/150 43/101/151 45/112/152
g default
v 0.691201 0.131273 0.601889
v 0.691367 0.079225 0.605941
v 0.693327 0.135328 0.653894
v 0.693493 0.083280 0.657946
v 0.745490 0.135328 0.651761
v 0.745655 0.083280 0.655813
v 0.743363 0.131273 0.599756
v 0.743529 0.079225 0.603808
vt 0.375000 0.000000
vt 0.625000 0.000000
vt 0.375000 0.250000
vt 0.625000 0.250000
vt 0.375000 0.500000
vt 0.625000 0.500000
vt 0.375000 0.750000
vt 0.625000 0.750000
vt 0.375000 1.000000
vt 0.625000 1.000000
vt 0.875000 0.000000
vt 0.875000 0.250000
vt 0.125000 0.000000
vt 0.125000 0.250000
vn -0.999165 0.000000 0.040858
vn -0.999165 0.000000 0.040858
vn -0.999165 0.000000 0.040858
vn -0.999165 0.000000 0.040858
vn 0.040734 0.077671 0.996147
vn 0.040734 0.077671 0.996147
vn 0.040734 0.077671 0.996147
vn 0.040734 0.077671 0.996147
vn 0.999165 -0.000000 -0.040858
vn 0.999165 -0.000000 -0.040858
vn 0.999165 -0.000000 -0.040858
vn 0.999165 -0.000000 -0.040858
vn -0.040734 -0.077671 -0.996147
vn -0.040734 -0.077671 -0.996147
vn -0.040734 -0.077671 -0.996147
vn -0.040734 -0.077671 -0.996147
vn 0.003173 -0.996979 0.077606
vn 0.003173 -0.996979 0.077606
vn 0.003173 -0.996979 0.077606
vn 0.003173 -0.996979 0.077606
vn -0.003173 0.996979 -0.077606
vn -0.003173 0.996979 -0.077606
vn -0.003173 0.996979 -0.077606
vn -0.003173 0.996979 -0.077606
s off
g pCube7
usemtl lambert4SG
f 49/113/153 50/114/154 52/116/155 51/115/156
f 51/115/157 52/116/158 54/118/159 53/117/160
f 53/117/161 54/118/162 56/120/163 55/119/164
f 55/119/165 56/120/166 50/122/167 49/121/168
f 50/114/169 56/123/170 54/124/171 52/116/172
f 55/125/173 49/113/174 51/115/175 53/126/176
g default
v 0.623666 0.081630 0.601286
v 0.675844 0.082056 0.602946
v 0.622017 0.080309 0.653449
v 0.674195 0.080735 0.655109
v 0.621549 0.132496 0.654756
v 0.673726 0.132923 0.656416
v 0.623198 0.133817 0.602593
v 0.675375 0.134244 0.604253
vt 0.375000 0.000000
vt 0.625000 0.000000
vt 0.375000 0.250000
vt 0.625000 0.250000
vt 0.375000 0.500000
vt 0.625000 0.500000
vt 0.375000 0.750000
vt 0.625000 0.750000
vt 0.375000 1.000000
vt 0.625000 1.000000
vt 0.875000 0.000000
vt 0.875000 0.250000
vt 0.125000 0.000000
vt 0.125000 0.250000
vn 0.008967 -0.999646 -0.025031
vn 0.008967 -0.999646 -0.025031
vn 0.008967 -0.999646 -0.025031
vn 0.008967 -0.999646 -0.025031
vn -0.031585 -0.025303 0.999181
vn -0.031585 -0.025303 0.999181
vn -0.031585 -0.025303 0.999181
vn -0.031585 -0.025303 0.999181
vn -0.008967 0.999646 0.025031
vn -0.008967 0.999646 0.025031
vn -0.008967 0.999646 0.025031
vn -0.008967 0.999646 0.025031
vn 0.031585 0.025303 -0.999181
vn 0.031585 0.025303 -0.999181
vn 0.031585 0.025303 -0.999181
vn 0.031585 0.025303 -0.999181
vn 0.999461 0.008169 0.031801
vn 0.999461 0.008169 0.031801
vn 0.999461 0.008169 0.031801
vn 0.999461 0.008169 0.031801
vn -0.999461 -0.008169 -0.031801
vn -0.999461 -0.008169 -0.031801
vn -0.999461 -0.008169 -0.031801
vn -0.999461 -0.008169 -0.031801
s off
g pCube8
usemtl lambert4SG
f 57/127/177 58/128/178 60/130/179 59/129/180
f 59/129/181 60/130/182 62/132/183 61/131/184
f 61/131/185 62/132/186 64/134/187 63/133/188
f 63/133/189 64/134/190 58/136/191 57/135/192
f 58/128/193 64/137/194 62/138/195 60/130/196
f 63/139/197 57/127/198 59/129/199 61/140/200
g default
v 0.818809 0.060298 0.602031
v 0.766611 0.059434 0.602031
v 0.818785 0.061752 0.654216
v 0.766587 0.060888 0.654216
v 0.819649 0.009574 0.655671
v 0.767450 0.008710 0.655671
v 0.819673 0.008119 0.603486
v 0.767474 0.007255 0.603486
vt 0.375000 0.000000
vt 0.625000 0.000000
vt 0.375000 0.250000
vt 0.625000 0.250000
vt 0.375000 0.500000
vt 0.625000 0.500000
vt 0.375000 0.750000
vt 0.625000 0.750000
vt 0.375000 1.000000
vt 0.625000 1.000000
vt 0.875000 0.000000
vt 0.875000 0.250000
vt 0.125000 0.000000
vt 0.125000 0.250000
vn -0.016544 0.999475 -0.027868
vn -0.016544 0.999475 -0.027868
vn -0.016544 0.999475 -0.027868
vn -0.016544 0.999475 -0.027868
vn -0.000461 0.027864 0.999612
vn -0.000461 0.027864 0.999612
vn -0.000461 0.027864 0.999612
vn -0.000461 0.027864 0.999612
vn 0.016544 -0.999475 0.027868
vn 0.016544 -0.999475 0.027868
vn 0.016544 -0.999475 0.027868
vn 0.016544 -0.999475 0.027868
vn 0.000461 -0.027864 -0.999612
vn 0.000461 -0.027864 -0.999612
vn 0.000461 -0.027864 -0.999612
vn 0.000461 -0.027864 -0.999612
vn -0.999863 -0.016551 -0.000000
vn -0.999863 -0.016551 -0.000000
vn -0.999863 -0.016551 -0.000000
vn -0.999863 -0.016551 -0.000000
vn 0.999863 0.016551 0.000000
vn 0.999863 0.016551 0.000000
vn 0.999863 0.016551 0.000000
vn 0.999863 0.016551 0.000000
s off
g pCube9
usemtl lambert4SG
f 65/141/201 66/142/202 68/144/203 67/143/204
f 67/143/205 68/144/206 70/146/207 69/145/208
f 69/145/209 70/146/210 72/148/211 71/147/212
f 71/147/213 72/148/214 66/150/215 65/149/216
f 66/142/217 72/151/218 70/152/219 68/144/220
f 71/153/221 65/141/222 67/143/223 69/154/224
g default
v 0.692325 0.006438 0.604871
v 0.744531 0.006438 0.604871
v 0.692325 0.010524 0.656917
v 0.744531 0.010524 0.656917
v 0.692325 0.062569 0.652831
v 0.744531 0.062569 0.652831
v 0.692325 0.058484 0.600785
v 0.744531 0.058484 0.600785
vt 0.375000 0.000000
vt 0.625000 0.000000
vt 0.375000 0.250000
vt 0.625000 0.250000
vt 0.375000 0.500000
vt 0.625000 0.500000
vt 0.375000 0.750000
vt 0.625000 0.750000
vt 0.375000 1.000000
vt 0.625000 1.000000
vt 0.875000 0.000000
vt 0.875000 0.250000
vt 0.125000 0.000000
vt 0.125000 0.250000
vn 0.000000 -0.996933 0.078260
vn 0.000000 -0.996933 0.078260
vn 0.000000 -0.996933 0.078260
vn 0.000000 -0.996933 0.078260
vn 0.000000 0.078260 0.996933
vn 0.000000 0.078260 0.996933
vn 0.000000 0.078260 0.996933
vn 0.000000 0.078260 0.996933
vn 0.000000 0.996933 -0.078260
vn 0.000000 0.996933 -0.078260
vn 0.000000 0.996933 -0.078260
vn 0.000000 0.996933 -0.078260
vn 0.000000 -0.078260 -0.996933
vn 0.000000 -0.078260 -0.996933
vn 0.000000 -0.078260 -0.996933
vn 0.000000 -0.078260 -0.996933
vn 1.000000 0.000000 0.000000
vn 1.000000 0.000000 0.000000
vn 1.000000 0.000000 0.000000
vn 1.000000 0.000000 0.000000
vn -1.000000 0.000000 0.000000
vn -1.000000 0.000000 0.000000
vn -1.000000 0.000000 0.000000
vn -1.000000 0.000000 0.000000
s off
g pCube10
usemtl lambert4SG
f 73/155/225 74/156/226 76/158/227 75/157/228
f 75/157/229 76/158/230 78/160/231 77/159/232
f 77/159/233 78/160/234 80/162/235 79/161/236
f 79/161/237 80/162/238 74/164/239 73/163/240
f 74/156/241 80/165/242 78/166/243 76/158/244
f 79/167/245 73/155/246 75/157/247 77/168/248
g default
v 0.674311 0.006585 0.604183
v 0.674236 0.058654 0.600415
v 0.675352 0.010353 0.656242
v 0.675277 0.062423 0.652475
v 0.623157 0.010353 0.657287
v 0.623081 0.062423 0.653519
v 0.622115 0.006585 0.605227
v 0.622040 0.058654 0.601459
vt 0.375000 0.000000
vt 0.625000 0.000000
vt 0.375000 0.250000
vt 0.625000 0.250000
vt 0.375000 0.500000
vt 0.625000 0.500000
vt 0.375000 0.750000
vt 0.625000 0.750000
vt 0.375000 1.000000
vt 0.625000 1.000000
vt 0.875000 0.000000
vt 0.875000 0.250000
vt 0.125000 0.000000
vt 0.125000 0.250000
vn 0.999800 0.000000 -0.019999
vn 0.999800 0.000000 -0.019999
vn 0.999800 0.000000 -0.019999
vn 0.999800 0.000000 -0.019999
vn 0.019946 0.072189 0.997191
vn 0.019946 0.072189 0.997191
vn 0.019946 0.072189 0.997191
vn 0.019946 0.072189 0.997191
vn -0.999800 -0.000000 0.019999
vn -0.999800 -0.000000 0.019999
vn -0.999800 -0.000000 0.019999
vn -0.999800 -0.000000 0.019999
vn -0.019946 -0.072189 -0.997191
vn -0.019946 -0.072189 -0.997191
vn -0.019946 -0.072189 -0.997191
vn -0.019946 -0.072189 -0.997191
vn -0.001444 0.997391 -0.072175
vn -0.001444 0.997391 -0.072175
vn -0.001444 0.997391 -0.072175
vn -0.001444 0.997391 -0.072175
vn 0.001444 -0.997391 0.072175
vn 0.001444 -0.997391 0.072175
vn 0.001444 -0.997391 0.072175
vn 0.001444 -0.997391 0.072175
s off
g pCube11
usemtl lambert4SG
f 81/169/249 82/170/250 84/172/251 83/171/252
f 83/171/253 84/172/254 86/174/255 85/173/256
f 85/173/257 86/174/258 88/176/259 87/175/260
f 87/175/261 88/176/262 82/178/263 81/177/264
f 82/170/265 88/179/266 86/180/267 84/172/268
f 87/181/269 81/169/270 83/171/271 85/182/272
g default
v 0.692135 -0.014772 0.599997
v 0.692176 -0.066606 0.606213
v 0.692475 -0.008556 0.651831
v 0.692516 -0.060390 0.658047
v 0.744680 -0.008556 0.651489
v 0.744721 -0.060390 0.657704
v 0.744340 -0.014772 0.599655
v 0.744381 -0.066606 0.605871
vt 0.375000 0.000000
vt 0.625000 0.000000
vt 0.375000 0.250000
vt 0.625000 0.250000
vt 0.375000 0.500000
vt 0.625000 0.500000
vt 0.375000 0.750000
vt 0.625000 0.750000
vt 0.375000 1.000000
vt 0.625000 1.000000
vt 0.875000 0.000000
vt 0.875000 0.250000
vt 0.125000 0.000000
vt 0.125000 0.250000
vn -0.999979 -0.000000 0.006557
vn -0.999979 -0.000000 0.006557
vn -0.999979 -0.000000 0.006557
vn -0.999979 -0.000000 0.006557
vn 0.006510 0.119068 0.992865
vn 0.006510 0.119068 0.992865
vn 0.006510 0.119068 0.992865
vn 0.006510 0.119068 0.992865
vn 0.999979 0.000000 -0.006557
vn 0.999979 0.000000 -0.006557
vn 0.999979 0.000000 -0.006557
vn 0.999979 0.000000 -0.006557
vn -0.006510 -0.119068 -0.992865
vn -0.006510 -0.119068 -0.992865
vn -0.006510 -0.119068 -0.992865
vn -0.006510 -0.119068 -0.992865
vn 0.000781 -0.992886 0.119065
vn 0.000781 -0.992886 0.119065
vn 0.000781 -0.992886 0.119065
vn 0.000781 -0.992886 0.119065
vn -0.000781 0.992886 -0.119065
vn -0.000781 0.992886 -0.119065
vn -0.000781 0.992886 -0.119065
vn -0.000781 0.992886 -0.119065
s off
g pCube12
usemtl lambert4SG
f 89/183/273 90/184/274 92/186/275 91/185/276
f 91/185/277 92/186/278 94/188/279 93/187/280
f 93/187/281 94/188/282 96/190/283 95/189/284
f 95/189/285 96/190/286 90/192/287 89/191/288
f 90/184/289 96/193/290 94/194/291 92/186/292
f 95/195/293 89/183/294 91/185/295 93/196/296
g default
v 0.597462 -0.274758 0.654974
v 0.839394 -0.274758 0.654974
v 0.597462 -0.184594 0.654933
v 0.839394 -0.184594 0.654933
v 0.597462 -0.184618 0.602727
v 0.839394 -0.184618 0.602727
v 0.597462 -0.274782 0.602769
v 0.839394 -0.274782 0.602769
vt 0.375000 0.285674
vt 0.625000 0.285674
vt 0.375000 0.535674
vt 0.625000 0.535674
vt 0.375000 0.785674
vt 0.625000 0.785674
vt 0.375000 1.035674
vt 0.625000 1.035674
vt 0.375000 1.285674
vt 0.625000 1.285674
vt 0.875000 0.285674
vt 0.875000 0.535674
vt 0.125000 0.285674
vt 0.125000 0.535674
vn 0.000000 0.000456 1.000000
vn 0.000000 0.000456 1.000000
vn 0.000000 0.000456 1.000000
vn 0.000000 0.000456 1.000000
vn 0.000000 1.000000 -0.000456
vn 0.000000 1.000000 -0.000456
vn 0.000000 1.000000 -0.000456
vn 0.000000 1.000000 -0.000456
vn 0.000000 -0.000456 -1.000000
vn 0.000000 -0.000456 -1.000000
vn 0.000000 -0.000456 -1.000000
vn 0.000000 -0.000456 -1.000000
vn 0.000000 -1.000000 0.000456
vn 0.000000 -1.000000 0.000456
vn 0.000000 -1.000000 0.000456
vn 0.000000 -1.000000 0.000456
vn 1.000000 0.000000 0.000000
vn 1.000000 0.000000 0.000000
vn 1.000000 0.000000 0.000000
vn 1.000000 0.000000 0.000000
vn -1.000000 0.000000 0.000000
vn -1.000000 0.000000 0.000000
vn -1.000000 0.000000 0.000000
vn -1.000000 0.000000 0.000000
s off
g pCube13
usemtl lambert4SG
f 97/197/297 98/198/298 100/200/299 99/199/300
f 99/199/301 100/200/302 102/202/303 101/201/304
f 101/201/305 102/202/306 104/204/307 103/203/308
f 103/203/309 104/204/310 98/206/311 97/205/312
f 98/198/313 104/207/314 102/208/315 100/200/316
f 103/209/317 97/197/318 99/199/319 101/210/320
g default
v 0.816343 -0.082355 0.599314
v 0.764166 -0.082603 0.601016
v 0.818010 -0.076860 0.651203
v 0.765832 -0.077109 0.652905
v 0.818436 -0.128776 0.656686
v 0.766258 -0.129025 0.658388
v 0.816770 -0.134270 0.604797
v 0.764592 -0.134519 0.606499
vt 0.375000 0.000000
vt 0.625000 0.000000
vt 0.375000 0.250000
vt 0.625000 0.250000
vt 0.375000 0.500000
vt 0.625000 0.500000
vt 0.375000 0.750000
vt 0.625000 0.750000
vt 0.375000 1.000000
vt 0.625000 1.000000
vt 0.875000 0.000000
vt 0.875000 0.250000
vt 0.125000 0.000000
vt 0.125000 0.250000
vn -0.008167 0.994435 -0.105031
vn -0.008167 0.994435 -0.105031
vn -0.008167 0.994435 -0.105031
vn -0.008167 0.994435 -0.105031
vn 0.031914 0.105240 0.993935
vn 0.031914 0.105240 0.993935
vn 0.031914 0.105240 0.993935
vn 0.031914 0.105240 0.993935
vn 0.008167 -0.994435 0.105031
vn 0.008167 -0.994435 0.105031
vn 0.008167 -0.994435 0.105031
vn 0.008167 -0.994435 0.105031
vn -0.031914 -0.105240 -0.993935
vn -0.031914 -0.105240 -0.993935
vn -0.031914 -0.105240 -0.993935
vn -0.031914 -0.105240 -0.993935
vn -0.999457 -0.004765 0.032596
vn -0.999457 -0.004765 0.032596
vn -0.999457 -0.004765 0.032596
vn -0.999457 -0.004765 0.032596
vn 0.999457 0.004765 -0.032596
vn 0.999457 0.004765 -0.032596
vn 0.999457 0.004765 -0.032596
vn 0.999457 0.004765 -0.032596
s off
g pCube14
usemtl lambert4SG
f 105/211/321 106/212/322 108/214/323 107/213/324
f 107/213/325 108/214/326 110/216/327 109/215/328
f 109/215/329 110/216/330 112/218/331 111/217/332
f 111/217/333 112/218/334 106/220/335 105/219/336
f 106/212/337 112/221/338 110/222/339 108/214/340
f 111/223/341 105/211/342 107/213/343 109/224/344
