# This file uses centimeters as units for non-parametric coordinates.

mtllib Dishwasher Main.mtl
g default
v -0.206690 -0.917025 0.761270
v 0.362390 -0.917025 0.761270
v -0.206690 -0.316265 0.761270
v 0.362390 -0.316265 0.761270
v -0.206690 -0.316265 0.030196
v 0.362390 -0.316265 0.030196
v -0.206690 -0.917025 0.030196
v 0.362390 -0.917025 0.030196
vt 0.859358 0.366004
vt 0.926356 0.366004
vt 0.859358 0.433002
vt 0.926356 0.433002
vt 0.859358 0.500000
vt 0.926356 0.500000
vt 0.859358 0.566998
vt 0.926356 0.566998
vt 0.859358 0.633996
vt 0.926356 0.633996
vt 0.993354 0.366004
vt 0.993354 0.433002
vt 0.792360 0.366004
vt 0.792360 0.433002
vn 0.000000 0.000000 1.000000
vn 0.000000 0.000000 1.000000
vn 0.000000 0.000000 1.000000
vn 0.000000 0.000000 1.000000
vn 0.000000 1.000000 0.000000
vn 0.000000 1.000000 0.000000
vn 0.000000 1.000000 0.000000
vn 0.000000 1.000000 0.000000
vn 0.000000 0.000000 -1.000000
vn 0.000000 0.000000 -1.000000
vn 0.000000 0.000000 -1.000000
vn 0.000000 0.000000 -1.000000
vn 0.000000 -1.000000 0.000000
vn 0.000000 -1.000000 0.000000
vn 0.000000 -1.000000 0.000000
vn 0.000000 -1.000000 0.000000
vn 1.000000 0.000000 0.000000
vn 1.000000 0.000000 0.000000
vn 1.000000 0.000000 0.000000
vn 1.000000 0.000000 0.000000
vn -1.000000 0.000000 0.000000
vn -1.000000 0.000000 0.000000
vn -1.000000 0.000000 0.000000
vn -1.000000 0.000000 0.000000
s off
g pCube4
usemtl lambert2SG
f 1/1/1 2/2/2 4/4/3 3/3/4
f 3/3/5 4/4/6 6/6/7 5/5/8
f 5/5/9 6/6/10 8/8/11 7/7/12
f 7/7/13 8/8/14 2/10/15 1/9/16
f 2/2/17 8/11/18 6/12/19 4/4/20
f 7/13/21 1/1/22 3/3/23 5/14/24
g default
v -0.914184 0.380390 0.838107
v 0.941009 0.380390 0.838107
v -0.914184 0.759743 0.838107
v 0.941009 0.759743 0.838107
v -0.914184 0.759743 -0.824142
v 0.941009 0.759743 -0.824142
v -0.914184 0.380390 -0.824142
v 0.941009 0.380390 -0.824142
vt 0.863095 0.380952
vt 0.922619 0.380952
vt 0.863095 0.440476
vt 0.922619 0.440476
vt 0.863095 0.500000
vt 0.922619 0.500000
vt 0.863095 0.559524
vt 0.922619 0.559524
vt 0.863095 0.619048
vt 0.922619 0.619048
vt 0.982143 0.380952
vt 0.982143 0.440476
vt 0.803571 0.380952
vt 0.803571 0.440476
vn 0.000000 0.000000 1.000000
vn 0.000000 0.000000 1.000000
vn 0.000000 0.000000 1.000000
vn 0.000000 0.000000 1.000000
vn 0.000000 1.000000 -0.000000
vn 0.000000 1.000000 -0.000000
vn 0.000000 1.000000 -0.000000
vn 0.000000 1.000000 -0.000000
vn 0.000000 0.000000 -1.000000
vn 0.000000 0.000000 -1.000000
vn 0.000000 0.000000 -1.000000
vn 0.000000 0.000000 -1.000000
vn 0.000000 -1.000000 0.000000
vn 0.000000 -1.000000 0.000000
vn 0.000000 -1.000000 0.000000
vn 0.000000 -1.000000 0.000000
vn 1.000000 0.000000 0.000000
vn 1.000000 0.000000 0.000000
vn 1.000000 0.000000 0.000000
vn 1.000000 0.000000 0.000000
vn -1.000000 0.000000 0.000000
vn -1.000000 0.000000 0.000000
vn -1.000000 0.000000 0.000000
vn -1.000000 0.000000 0.000000
s off
g pCube3
usemtl lambert2SG
f 9/15/25 10/16/26 12/18/27 11/17/28
f 11/17/29 12/18/30 14/20/31 13/19/32
f 13/19/33 14/20/34 16/22/35 15/21/36
f 15/21/37 16/22/38 10/24/39 9/23/40
f 10/16/41 16/25/42 14/26/43 12/18/44
f 15/27/45 9/15/46 11/17/47 13/28/48
g default
v -0.914184 -0.917025 0.838107
v 0.941009 -0.917025 0.838107
v -0.914184 -0.537672 0.838107
v 0.941009 -0.537672 0.838107
v -0.914184 -0.537672 -0.824142
v 0.941009 -0.537672 -0.824142
v -0.914184 -0.917025 -0.824142
v 0.941009 -0.917025 -0.824142
vt 0.880128 0.450275
vt 0.910348 0.450275
vt 0.880128 0.480495
vt 0.910348 0.480495
vt 0.880128 0.510714
vt 0.910348 0.510714
vt 0.880128 0.540934
vt 0.910348 0.540934
vt 0.880128 0.571154
vt 0.910348 0.571154
vt 0.940568 0.450275
vt 0.940568 0.480495
vt 0.849908 0.450275
vt 0.849908 0.480495
vn 0.000000 0.000000 1.000000
vn 0.000000 0.000000 1.000000
vn 0.000000 0.000000 1.000000
vn 0.000000 0.000000 1.000000
vn 0.000000 1.000000 -0.000000
vn 0.000000 1.000000 -0.000000
vn 0.000000 1.000000 -0.000000
vn 0.000000 1.000000 -0.000000
vn 0.000000 0.000000 -1.000000
vn 0.000000 0.000000 -1.000000
vn 0.000000 0.000000 -1.000000
vn 0.000000 0.000000 -1.000000
vn 0.000000 -1.000000 0.000000
vn 0.000000 -1.000000 0.000000
vn 0.000000 -1.000000 0.000000
vn 0.000000 -1.000000 0.000000
vn 1.000000 0.000000 0.000000
vn 1.000000 0.000000 0.000000
vn 1.000000 0.000000 0.000000
vn 1.000000 0.000000 0.000000
vn -1.000000 0.000000 0.000000
vn -1.000000 0.000000 0.000000
vn -1.000000 0.000000 0.000000
vn -1.000000 0.000000 0.000000
s off
g pCube2
usemtl lambert2SG
f 17/29/49 18/30/50 20/32/51 19/31/52
f 19/31/53 20/32/54 22/34/55 21/33/56
f 21/33/57 22/34/58 24/36/59 23/35/60
f 23/35/61 24/36/62 18/38/63 17/37/64
f 18/30/65 24/39/66 22/40/67 20/32/68
f 23/41/69 17/29/70 19/31/71 21/42/72
g default
v -1.030538 -1.446503 0.901965
v 1.030538 -1.446503 0.901965
v -1.030538 1.446503 0.901965
v 1.030538 1.446503 0.901965
v -1.030538 1.446503 -1.030538
v 1.030538 1.446503 -1.030538
v -1.030538 -1.446503 -1.030538
v 1.030538 -1.446503 -1.030538
v -1.030538 1.285614 0.901964
v 1.030538 1.285614 0.901964
v 1.030538 1.447544 0.901964
v -1.030538 1.447544 0.901964
v -1.030538 1.285614 1.075412
v 1.030538 1.285614 1.075412
v 1.030538 1.447544 1.034569
v -1.030538 1.447544 1.034569
v -1.030538 -1.439248 0.901965
v 1.030538 -1.439248 0.901965
v 1.030538 -1.094094 0.901964
v -1.030538 -1.094094 0.901964
v -1.030538 -1.439248 1.069241
v 1.030538 -1.439248 1.069241
v 1.030538 -1.094093 1.069241
v -1.030538 -1.094093 1.069241
v -0.973095 1.285614 -0.905389
v 0.973095 1.285614 -0.905389
v -0.973095 -1.094094 -0.905389
v 0.973095 -1.094094 -0.905389
vt 0.000000 0.156072
vt 0.727812 0.151376
vt 0.726291 0.217408
vt 0.000602 0.216943
vt 0.008047 0.995316
vt 0.722944 0.984351
vt 0.728845 0.562830
vt 0.095572 0.944532
vt 0.736529 0.079453
vt 0.117597 0.134000
vt 0.731091 0.037244
vt 0.037306 0.010742
vt 0.028645 0.000000
vt 0.735339 0.027395
vt 0.734388 0.139568
vt 0.025149 0.116574
vt 0.722941 0.213420
vt 0.723410 0.930250
vt 0.008036 0.212623
vt 0.009720 0.939014
vt 0.731071 0.039553
vt 0.037235 0.013140
vt 0.730123 0.149770
vt 0.669780 0.869687
vt 0.109227 0.900419
vt 0.127316 0.434545
vt 0.676455 0.240165
vt 0.033833 0.336615
vt 0.669780 0.894679
vt 0.669780 0.894679
vt 0.676455 0.449176
vt 0.676455 0.447462
vt 0.127316 0.225533
vt 0.127316 0.438024
vt 0.730123 0.149770
vt 0.730123 0.149770
vt 0.730123 0.149770
vt 0.730123 0.358782
vt 0.109227 0.900419
vt 0.109227 0.873389
vt 0.033833 0.127603
vt 0.033833 0.127603
vt 0.033833 0.127603
vt 0.033833 0.127603
vt 0.723410 0.930250
vt 0.723410 0.147192
vt 0.723410 0.930250
vt 0.723410 0.930250
vt 0.723410 0.930250
vt 0.009720 0.939014
vt 0.009720 0.939014
vt 0.009720 0.155957
vt 0.009720 0.939014
vt 0.009720 0.939014
vt 0.028645 0.000000
vt 0.028645 0.000000
vt 0.025149 0.116574
vt 0.025149 0.116574
vt 0.734388 0.139568
vt 0.734388 0.139568
vt 0.735339 0.027395
vt 0.735339 0.027395
vt 0.731071 0.039553
vt 0.731071 0.039553
vt 0.731071 0.039553
vt 0.037235 0.013140
vt 0.037235 0.013140
vt 0.037235 0.013140
vt 0.731091 0.037244
vt 0.776721 0.008704
vt 0.731091 0.037244
vt 0.731091 0.037244
vt 0.037306 0.010742
vt 0.037306 0.013668
vt 0.037306 0.010742
vt 0.037306 0.010742
vt 0.000000 0.943545
vt 0.000000 0.160488
vt 0.000602 0.228718
vt 0.000602 0.212527
vt 0.726291 0.205633
vt 0.726291 0.201217
vt 0.008036 0.995681
vt 0.008036 0.995681
vt 0.008036 0.224398
vt 0.727812 0.934433
vt 0.727812 0.146960
vt 0.722941 0.984702
vt 0.722941 0.984702
vt 0.722941 0.201645
vt 0.008047 0.583198
vt 0.008047 0.368818
vt 0.008047 0.995316
vt 0.722944 0.302758
vt 0.768574 0.591925
vt 0.722944 0.984351
vt 0.690900 0.152135
vt 0.690900 0.152135
vt 0.117597 0.134000
vt 0.117597 0.084967
vt 0.683215 0.018094
vt 0.683215 0.937105
vt 0.095572 0.062843
vt 0.095572 0.553822
vn 0.000000 0.244566 0.969633
vn 0.000000 0.244566 0.969633
vn 0.000000 0.244566 0.969633
vn 0.000000 0.244566 0.969633
vn 0.000000 1.000000 0.000000
vn 0.000000 1.000000 0.000000
vn 0.000000 1.000000 0.000000
vn 0.000000 1.000000 0.000000
vn 0.000000 0.000000 -1.000000
vn 0.000000 0.000000 -1.000000
vn 0.000000 0.000000 -1.000000
vn 0.000000 0.000000 -1.000000
vn 0.000000 -1.000000 0.000000
vn 0.000000 -1.000000 0.000000
vn 0.000000 -1.000000 0.000000
vn 0.000000 -1.000000 0.000000
vn 1.000000 0.000000 0.000000
vn 1.000000 0.000000 0.000000
vn 1.000000 0.000000 0.000000
vn 1.000000 0.000000 0.000000
vn -1.000000 0.000000 0.000000
vn -1.000000 0.000000 0.000000
vn -1.000000 0.000000 0.000000
vn -1.000000 0.000000 0.000000
vn 0.000000 0.000002 1.000000
vn 0.000000 0.000002 1.000000
vn 0.000000 0.000002 1.000000
vn 0.000000 0.000002 1.000000
vn -0.000000 0.000000 0.000000
vn -1.000000 0.000000 0.000000
vn -1.000000 0.000000 0.000000
vn -1.000000 0.000000 0.000000
vn 0.000000 -0.000649 -1.000000
vn 0.000000 -0.000649 -1.000000
vn 0.000000 -0.000649 -1.000000
vn 0.000000 -0.000649 -1.000000
vn 1.000000 0.000000 0.000000
vn 0.000000 0.000000 0.000000
vn 1.000000 0.000000 0.000000
vn 1.000000 0.000000 0.000000
vn 0.000000 -1.000000 -0.000000
vn 0.000000 -1.000000 -0.000000
vn 0.000000 -1.000000 0.000000
vn 0.000000 -1.000000 0.000000
vn 1.000000 0.000000 0.000000
vn 1.000000 0.000000 0.000000
vn 1.000000 0.000000 0.000000
vn 1.000000 0.000000 0.000000
vn 0.000000 1.000000 0.000000
vn 0.000000 1.000000 0.000000
vn 0.000000 1.000000 0.000000
vn 0.000000 1.000000 0.000000
vn -1.000000 0.000000 0.000000
vn -1.000000 0.000000 0.000000
vn -1.000000 0.000000 0.000000
vn -1.000000 0.000000 0.000000
vn 0.000000 0.000000 1.000000
vn 0.000000 0.000000 1.000000
vn 0.000000 0.000000 1.000000
vn 0.000000 0.000000 1.000000
vn -0.000000 0.000000 0.000000
vn -0.999495 0.000000 0.031767
vn -0.999495 0.000000 0.031767
vn -1.000000 0.000000 0.000000
vn 0.000000 0.000000 1.000000
vn 0.000000 0.000000 1.000000
vn 0.000000 0.000000 1.000000
vn 0.000000 0.000000 1.000000
vn 0.999495 0.000000 0.031767
vn 0.000000 0.000000 0.000000
vn 1.000000 0.000000 0.000000
vn 0.999495 0.000000 0.031767
vn 0.000000 -1.000000 0.000001
vn 0.000000 -1.000000 0.000001
vn 0.000000 -1.000000 0.000001
vn 0.000000 -1.000000 0.000001
vn 1.000000 0.000000 0.000000
vn 1.000000 0.000000 0.000000
vn 1.000000 0.000000 0.000000
vn 1.000000 0.000000 0.000000
vn 0.000000 1.000000 -0.000000
vn 0.000000 1.000000 -0.000000
vn 0.000000 1.000000 -0.000003
vn 0.000000 1.000000 -0.000003
vn -1.000000 0.000000 0.000000
vn -1.000000 0.000000 0.000000
vn -1.000000 0.000000 0.000000
vn -1.000000 0.000000 0.000000
vn 0.000000 -1.000000 -0.000000
vn 0.000000 -1.000000 -0.000000
vn 0.999495 0.000000 0.031767
vn 0.999495 0.000000 0.031767
vn 0.000000 1.000000 -0.000000
vn 0.000000 1.000000 -0.000000
vn -0.999495 0.000000 0.031767
vn -0.999495 0.000000 0.031767
s off
g pCube1
usemtl lambert2SG
f 37/43/73 38/129/74 39/124/75 40/122/76
f 27/134/77 28/136/78 30/143/79 29/145/80
f 29/50/81 30/144/82 32/139/83 31/141/84
f 31/52/85 32/140/86 26/113/87 25/115/88
f 26/112/89 32/51/90 30/49/91 28/137/92
f 31/142/93 25/116/94 27/133/95 29/146/96
f 45/55/97 46/104/98 47/102/99 48/100/100
f 26/111/101 28/138/102 35/131/103 34/89/104
f 28/48/105 27/135/106 36/126/107 35/130/108
f 27/47/109 25/117/110 33/93/111 36/125/112
s 1
f 33/95/113 34/87/114 38/128/115 37/119/116
s off
f 34/88/117 35/132/118 39/123/119 38/44/120
f 35/59/121 36/127/122 40/121/123 39/45/124
f 36/61/125 33/94/126 37/120/127 40/46/128
f 25/54/129 26/114/130 42/106/131 41/108/132
s 2
f 26/53/133 34/90/134 43/77/135 42/105/136
s off
f 50/66/137 49/82/138 51/76/139 52/74/140
s 3
f 33/92/141 25/118/142 41/109/143 44/85/144
s off
f 41/64/145 42/107/146 46/103/147 45/97/148
f 42/63/149 43/78/150 47/101/151 46/56/152
s 4
f 43/79/153 44/83/154 48/99/155 47/57/156
s off
f 44/84/157 41/110/158 45/98/159 48/58/160
s 1
f 34/60/114 33/96/113 49/81/161 50/71/162
s 3
f 33/62/141 44/86/144 51/75/163 49/67/164
s 4
f 44/70/154 43/80/153 52/73/165 51/68/166
s 2
f 43/65/135 34/91/134 50/72/167 52/69/168
