# This file uses centimeters as units for non-parametric coordinates.

mtllib Cabinets.mtl
g default
v -2.571586 0.007511 0.366702
v 2.439407 0.007511 0.366702
v -2.571588 0.043828 0.366702
v 2.439407 0.043828 0.366702
v -2.571588 0.043828 -0.500000
v 2.439407 0.043828 -0.500000
v -2.571586 0.007511 -0.500000
v 2.439407 0.007511 -0.500000
v -1.909038 0.043828 0.366702
v -0.324236 0.043828 0.366702
v -0.324236 0.043828 -0.500000
v -1.909038 0.043828 -0.500000
v -1.909037 0.043828 0.237615
v -0.324236 0.043828 0.237615
v -0.324236 0.043828 -0.335787
v -1.909037 0.043828 -0.335787
v -1.909037 0.006067 0.237615
v -0.324236 0.006067 0.237615
v -0.324236 0.006067 -0.335787
v -1.909037 0.006067 -0.335787
v -1.912226 0.007511 -0.332105
v -0.324747 0.007511 -0.332105
v -0.324747 0.007511 0.240140
v -1.912226 0.007511 0.240140
vt 0.281924 0.768508
vt 0.480832 0.768508
vt 0.480832 0.998008
vt 0.281924 0.998008
vt 0.480832 0.500000
vt 0.281923 0.500000
vt 0.281923 0.270500
vt 0.480832 0.270500
vt 0.253052 0.528501
vt 0.253052 0.660097
vt 0.014430 0.660097
vt 0.014430 0.528501
vt 0.253052 0.745017
vt 0.253052 0.876613
vt 0.014430 0.876613
vt 0.014430 0.745017
vt 0.281923 0.001992
vt 0.480832 0.001992
vt 0.480832 0.150078
vt 0.281923 0.150078
vt 0.480832 0.234998
vt 0.443145 0.150078
vt 0.311549 0.150078
vt 0.281923 0.234998
vt 0.443145 0.234998
vt 0.311549 0.234998
vt 0.442300 0.620394
vt 0.442300 0.535331
vt 0.310970 0.620394
vt 0.310969 0.535331
vt 0.013416 0.500001
vt 0.013415 0.270500
vt 0.227204 0.244371
vt 0.038753 0.244383
vt 0.253052 0.961532
vt 0.014430 0.961532
vt 0.038739 0.023901
vt 0.227190 0.023889
vn 0.000000 0.000000 1.000000
vn 0.000000 0.000000 1.000000
vn 0.000000 0.000000 1.000000
vn 0.000000 0.000000 1.000000
vn 0.000000 0.000000 -1.000000
vn 0.000000 0.000000 -1.000000
vn 0.000000 0.000000 -1.000000
vn 0.000000 0.000000 -1.000000
vn 1.000000 0.000000 0.000000
vn 1.000000 0.000000 0.000000
vn 1.000000 0.000000 0.000000
vn 1.000000 0.000000 0.000000
vn -1.000000 -0.000016 0.000000
vn -1.000000 -0.000016 0.000000
vn -1.000000 -0.000016 0.000000
vn -1.000000 -0.000016 0.000000
vn 0.000000 0.000000 0.000000
vn 0.000000 0.000000 0.000000
vn 0.000000 0.999930 0.011791
vn 0.000000 0.999930 0.011791
vn 0.000000 1.000000 0.000000
vn 0.000000 1.000000 0.000000
vn 0.000000 1.000000 0.000000
vn 0.000000 1.000000 0.000000
vn 0.000000 0.000000 0.000000
vn 0.000000 0.000000 0.000000
vn 0.000000 1.000000 0.000000
vn 0.000000 1.000000 0.000000
vn 0.000000 1.000000 0.000000
vn 0.000000 1.000000 0.000000
vn 0.000000 1.000000 0.000000
vn 0.000000 1.000000 0.000000
vn 0.000000 1.000000 -0.000000
vn 0.000000 1.000000 -0.000000
vn 0.000000 1.000000 -0.000000
vn 0.000000 1.000000 -0.000000
vn -0.000000 -0.000000 0.000000
vn -0.000000 -0.000000 0.000000
vn -0.615772 -0.787924 0.000000
vn -0.615772 -0.787924 0.000000
vn 0.000000 1.000000 0.000000
vn 0.000000 1.000000 0.000000
vn 0.000000 1.000000 0.000000
vn 0.000000 1.000000 0.000000
vn 0.000000 0.000000 0.000000
vn 0.000000 0.000000 0.000000
vn 0.006512 0.999979 0.000000
vn 0.006512 0.999979 0.000000
vn 0.000000 0.000000 -1.000000
vn 0.000000 0.000000 -1.000000
vn 0.000000 0.000000 -1.000000
vn 0.000000 0.000000 -1.000000
vn -1.000000 0.000000 0.000000
vn -1.000000 0.000000 0.000000
vn -1.000000 0.000000 0.000000
vn -1.000000 0.000000 0.000000
vn 0.000000 0.000000 1.000000
vn 0.000000 0.000000 1.000000
vn 0.000000 0.000000 1.000000
vn 0.000000 0.000000 1.000000
vn 1.000000 0.000000 0.000000
vn 1.000000 0.000000 0.000000
vn 1.000000 0.000000 0.000000
vn 1.000000 0.000000 0.000000
vn 0.000000 -1.000000 0.000000
vn 0.000000 -1.000000 0.000000
vn 0.000000 -1.000000 0.000000
vn 0.000000 -1.000000 0.000000
vn 0.000000 -1.000000 0.000000
vn 0.000000 -1.000000 0.000000
vn 0.000000 -1.000000 0.000000
vn 0.000000 -1.000000 0.000000
vn 0.000000 -1.000000 0.000000
vn 0.000000 -1.000000 0.000000
vn 0.000000 -1.000000 0.000000
vn 0.000000 -1.000000 0.000000
vn 0.000000 -1.000000 0.000000
vn 0.000000 -1.000000 0.000000
vn 0.000000 -1.000000 0.000000
vn 0.000000 -1.000000 0.000000
s off
g pCube1
usemtl pCube1SG
f 1/6/1 2/31/2 4/32/3 3/7/4
f 5/38/5 6/33/6 8/34/7 7/37/8
f 2/1/9 8/2/10 6/3/11 4/4/12
f 7/5/13 1/6/14 3/7/15 5/8/16
f 3/7/17 4/17/18 10/20/19 9/24/20
f 4/17/21 6/18/22 11/19/23 10/20/24
f 6/18/25 5/8/26 12/21/27 11/19/28
f 5/8/29 3/7/30 9/24/31 12/21/32
f 9/24/33 10/20/34 14/23/35 13/26/36
f 10/20/37 11/19/38 15/22/39 14/23/40
f 11/19/41 12/21/42 16/25/43 15/22/44
f 12/21/45 9/24/46 13/26/47 16/25/48
f 13/14/49 14/35/50 18/36/51 17/15/52
f 14/9/53 15/10/54 19/11/55 18/12/56
f 15/10/57 16/13/58 20/16/59 19/11/60
f 16/13/61 13/14/62 17/15/63 20/16/64
f 7/5/65 8/2/66 22/27/67 21/28/68
f 8/2/69 2/1/70 23/29/71 22/27/72
f 2/1/73 1/6/74 24/30/75 23/29/76
f 1/6/77 7/5/78 21/28/79 24/30/80
g default
v -2.624582 -1.011329 0.286399
v -0.161419 -1.011329 0.286399
v -2.624582 0.007579 0.286399
v -0.161419 0.007579 0.286399
v -2.624582 0.007579 0.218488
v -0.161419 0.007579 0.218488
v -2.624582 -1.011329 0.218488
v -0.161419 -1.011329 0.218488
vt 0.747689 0.977500
vt 0.759573 0.509929
vt 0.558783 0.497676
vt 0.546902 0.965238
vt 0.558796 0.510223
vt 0.559446 0.965221
vt 0.747027 0.509947
vt 0.747664 0.964960
vt 0.947807 0.509672
vt 0.948430 0.964700
vt 0.747007 0.497402
vt 0.760208 0.964945
vt 0.546249 0.510242
vt 0.559464 0.977766
vn 0.000000 0.000000 1.000000
vn 0.000000 0.000000 1.000000
vn 0.000000 0.000000 1.000000
vn 0.000000 0.000000 1.000000
vn 0.000000 1.000000 0.000000
vn 0.000000 1.000000 0.000000
vn 0.000000 1.000000 0.000000
vn 0.000000 1.000000 0.000000
vn 0.000000 0.000000 -1.000000
vn 0.000000 0.000000 -1.000000
vn 0.000000 0.000000 -1.000000
vn 0.000000 0.000000 -1.000000
vn 0.000000 -1.000000 0.000000
vn 0.000000 -1.000000 0.000000
vn 0.000000 -1.000000 0.000000
vn 0.000000 -1.000000 0.000000
vn 1.000000 0.000000 0.000000
vn 1.000000 0.000000 0.000000
vn 1.000000 0.000000 0.000000
vn 1.000000 0.000000 0.000000
vn -1.000000 0.000000 0.000000
vn -1.000000 0.000000 0.000000
vn -1.000000 0.000000 0.000000
vn -1.000000 0.000000 0.000000
s off
g pCube2
usemtl lambert5SG
f 25/50/81 26/40/82 28/47/83 27/48/84
f 27/42/85 28/51/86 30/43/87 29/44/88
f 29/44/89 30/43/90 32/45/91 31/46/92
f 31/46/93 32/45/94 26/40/95 25/50/96
f 26/49/97 32/45/98 30/43/99 28/41/100
f 31/46/101 25/39/102 27/52/103 29/44/104
g default
v -2.582347 -1.017872 -3.321400
v -2.109580 -1.017872 -3.321400
v -1.636812 -1.017872 -3.321400
v -1.164044 -1.017872 -3.321400
v -0.691276 -1.017872 -3.321400
v -0.218508 -1.017872 -3.321400
v 0.254260 -1.017872 -3.321400
v 0.727028 -1.017872 -3.321400
v 1.199796 -1.017872 -3.321400
v 1.672564 -1.017872 -3.321400
v 2.145331 -1.017872 -3.321400
v -2.582347 -0.895670 -3.322082
v -2.109580 -0.895670 -3.322082
v -1.636812 -0.895670 -3.322082
v -1.164044 -0.895670 -3.322082
v -0.691276 -0.895670 -3.322082
v -0.218508 -0.895670 -3.322082
v 0.254260 -0.895670 -3.322082
v 0.727028 -0.895670 -3.322082
v 1.199796 -0.895670 -3.322082
v 1.672564 -0.895670 -3.322082
v 2.145331 -0.895670 -3.322082
v -2.582347 -0.773469 -3.322763
v -2.109580 -0.773469 -3.322763
v -1.636812 -0.773469 -3.322763
v -1.164044 -0.773469 -3.322763
v -0.691276 -0.773469 -3.322763
v -0.218508 -0.773469 -3.322763
v 0.254260 -0.773469 -3.322763
v 0.727028 -0.773469 -3.322763
v 1.199796 -0.773469 -3.322763
v 1.672564 -0.773469 -3.322763
v 2.145331 -0.773469 -3.322763
v -2.582347 -0.651267 -3.323445
v -2.109580 -0.651267 -3.323445
v -1.636812 -0.651267 -3.323445
v -1.164044 -0.651267 -3.323445
v -0.691276 -0.651267 -3.323445
v -0.218508 -0.651267 -3.323445
v 0.254260 -0.651267 -3.323445
v 0.727028 -0.651267 -3.323445
v 1.199796 -0.651267 -3.323445
v 1.672564 -0.651267 -3.323445
v 2.145331 -0.651267 -3.323445
v -2.582347 -0.529066 -3.324126
v -2.109580 -0.529066 -3.324126
v -1.636812 -0.529066 -3.324126
v -1.164044 -0.529066 -3.324126
v -0.691276 -0.529066 -3.324126
v -0.218508 -0.529066 -3.324126
v 0.254260 -0.529066 -3.324126
v 0.727028 -0.529066 -3.324126
v 1.199796 -0.529066 -3.324126
v 1.672564 -0.529066 -3.324126
v 2.145331 -0.529066 -3.324126
v -2.582347 -0.406864 -3.324807
v -2.109580 -0.406864 -3.324807
v -1.636812 -0.406864 -3.324807
v -1.164044 -0.406864 -3.324807
v -0.691276 -0.406864 -3.324807
v -0.218508 -0.406864 -3.324807
v 0.254260 -0.406864 -3.324807
v 0.727028 -0.406864 -3.324807
v 1.199796 -0.406864 -3.324807
v 1.672564 -0.406864 -3.324807
v 2.145331 -0.406864 -3.324807
v -2.582347 -0.284663 -3.325489
v -2.109580 -0.284663 -3.325489
v -1.636812 -0.284663 -3.325489
v -1.164044 -0.284663 -3.325489
v -0.691276 -0.284663 -3.325489
v -0.218508 -0.284663 -3.325489
v 0.254260 -0.284663 -3.325489
v 0.727028 -0.284663 -3.325489
v 1.199796 -0.284663 -3.325489
v 1.672564 -0.284663 -3.325489
v 2.145331 -0.284663 -3.325489
v -2.582347 -0.162461 -3.326170
v -2.109580 -0.162461 -3.326170
v -1.636812 -0.162461 -3.326170
v -1.164044 -0.162461 -3.326170
v -0.691276 -0.162461 -3.326170
v -0.218508 -0.162461 -3.326170
v 0.254260 -0.162461 -3.326170
v 0.727028 -0.162461 -3.326170
v 1.199796 -0.162461 -3.326170
v 1.672564 -0.162461 -3.326170
v 2.145331 -0.162461 -3.326170
v -2.582347 -0.040260 -3.326852
v -2.109580 -0.040260 -3.326852
v -1.636812 -0.040260 -3.326852
v -1.164044 -0.040260 -3.326852
v -0.691276 -0.040260 -3.326852
v -0.218508 -0.040260 -3.326852
v 0.254260 -0.040260 -3.326852
v 0.727028 -0.040260 -3.326852
v 1.199796 -0.040260 -3.326852
v 1.672564 -0.040260 -3.326852
v 2.145331 -0.040260 -3.326852
v -2.582347 0.081942 -3.327533
v -2.109580 0.081942 -3.327533
v -1.636812 0.081942 -3.327533
v -1.164044 0.081942 -3.327533
v -0.691276 0.081942 -3.327533
v -0.218508 0.081942 -3.327533
v 0.254260 0.081942 -3.327533
v 0.727028 0.081942 -3.327533
v 1.199796 0.081942 -3.327533
v 1.672564 0.081942 -3.327533
v 2.145331 0.081942 -3.327533
v -2.582347 0.204143 -3.328214
v -2.109580 0.204143 -3.328214
v -1.636812 0.204143 -3.328214
v -1.164044 0.204143 -3.328214
v -0.691276 0.204143 -3.328214
v -0.218508 0.204143 -3.328214
v 0.254260 0.204143 -3.328214
v 0.727028 0.204143 -3.328214
v 1.199796 0.204143 -3.328214
v 1.672564 0.204143 -3.328214
v 2.145331 0.204143 -3.328214
vt 0.634423 0.000000
vt 0.670195 0.000000
vt 0.705968 0.000000
vt 0.741740 0.000000
vt 0.777512 0.000000
vt 0.813285 0.000000
vt 0.849057 0.000000
vt 0.884829 0.000000
vt 0.920602 0.000000
vt 0.956374 0.000000
vt 0.992147 0.000000
vt 0.634423 0.100000
vt 0.670195 0.100000
vt 0.705968 0.100000
vt 0.741740 0.100000
vt 0.777512 0.100000
vt 0.813285 0.100000
vt 0.849057 0.100000
vt 0.884829 0.100000
vt 0.920602 0.100000
vt 0.956374 0.100000
vt 0.992147 0.100000
vt 0.634423 0.200000
vt 0.670195 0.200000
vt 0.705968 0.200000
vt 0.741740 0.200000
vt 0.777512 0.200000
vt 0.813285 0.200000
vt 0.849057 0.200000
vt 0.884829 0.200000
vt 0.920602 0.200000
vt 0.956374 0.200000
vt 0.992147 0.200000
vt 0.634423 0.300000
vt 0.670195 0.300000
vt 0.705968 0.300000
vt 0.741740 0.300000
vt 0.777512 0.300000
vt 0.813285 0.300000
vt 0.849057 0.300000
vt 0.884829 0.300000
vt 0.920602 0.300000
vt 0.956374 0.300000
vt 0.992147 0.300000
vt 0.634423 0.400000
vt 0.670195 0.400000
vt 0.705968 0.400000
vt 0.741740 0.400000
vt 0.777512 0.400000
vt 0.813285 0.400000
vt 0.849057 0.400000
vt 0.884829 0.400000
vt 0.920602 0.400000
vt 0.956374 0.400000
vt 0.992147 0.400000
vt 0.634423 0.500000
vt 0.670195 0.500000
vt 0.705968 0.500000
vt 0.741740 0.500000
vt 0.777512 0.500000
vt 0.813285 0.500000
vt 0.849057 0.500000
vt 0.884829 0.500000
vt 0.920602 0.500000
vt 0.956374 0.500000
vt 0.992147 0.500000
vt 0.634423 0.600000
vt 0.670195 0.600000
vt 0.705968 0.600000
vt 0.741740 0.600000
vt 0.777512 0.600000
vt 0.813285 0.600000
vt 0.849057 0.600000
vt 0.884829 0.600000
vt 0.920602 0.600000
vt 0.956374 0.600000
vt 0.992147 0.600000
vt 0.634423 0.700000
vt 0.670195 0.700000
vt 0.705968 0.700000
vt 0.741740 0.700000
vt 0.777512 0.700000
vt 0.813285 0.700000
vt 0.849057 0.700000
vt 0.884829 0.700000
vt 0.920602 0.700000
vt 0.956374 0.700000
vt 0.992147 0.700000
vt 0.634423 0.800000
vt 0.670195 0.800000
vt 0.705968 0.800000
vt 0.741740 0.800000
vt 0.777512 0.800000
vt 0.813285 0.800000
vt 0.849057 0.800000
vt 0.884829 0.800000
vt 0.920602 0.800000
vt 0.956374 0.800000
vt 0.992147 0.800000
vt 0.634423 0.900000
vt 0.670195 0.900000
vt 0.705968 0.900000
vt 0.741740 0.900000
vt 0.777512 0.900000
vt 0.813285 0.900000
vt 0.849057 0.900000
vt 0.884829 0.900000
vt 0.920602 0.900000
vt 0.956374 0.900000
vt 0.992147 0.900000
vt 0.634423 1.000000
vt 0.670195 1.000000
vt 0.705968 1.000000
vt 0.741740 1.000000
vt 0.777512 1.000000
vt 0.813285 1.000000
vt 0.849057 1.000000
vt 0.884829 1.000000
vt 0.920602 1.000000
vt 0.956374 1.000000
vt 0.992147 1.000000
vn 0.000000 0.005576 0.999985
vn 0.000000 0.005576 0.999985
vn 0.000000 0.005576 0.999985
vn 0.000000 0.005576 0.999985
vn 0.000000 0.005576 0.999985
vn 0.000000 0.005576 0.999985
vn 0.000000 0.005576 0.999985
vn 0.000000 0.005576 0.999985
vn 0.000000 0.005576 0.999985
vn 0.000000 0.005576 0.999985
vn 0.000000 0.005576 0.999985
vn 0.000000 0.005576 0.999985
vn 0.000000 0.005576 0.999985
vn 0.000000 0.005576 0.999985
vn 0.000000 0.005576 0.999985
vn 0.000000 0.005576 0.999985
vn 0.000000 0.005576 0.999985
vn 0.000000 0.005576 0.999985
vn 0.000000 0.005576 0.999985
vn 0.000000 0.005576 0.999985
vn 0.000000 0.005576 0.999985
vn 0.000000 0.005576 0.999985
vn 0.000000 0.005576 0.999985
vn 0.000000 0.005576 0.999985
vn 0.000000 0.005576 0.999985
vn 0.000000 0.005576 0.999985
vn 0.000000 0.005576 0.999985
vn 0.000000 0.005576 0.999985
vn 0.000000 0.005576 0.999985
vn 0.000000 0.005576 0.999985
vn 0.000000 0.005576 0.999985
vn 0.000000 0.005576 0.999985
vn 0.000000 0.005576 0.999985
vn 0.000000 0.005576 0.999985
vn 0.000000 0.005576 0.999985
vn 0.000000 0.005576 0.999985
vn 0.000000 0.005576 0.999985
vn 0.000000 0.005576 0.999985
vn 0.000000 0.005576 0.999985
vn 0.000000 0.005576 0.999985
vn 0.000000 0.005576 0.999985
vn 0.000000 0.005576 0.999985
vn 0.000000 0.005576 0.999985
vn 0.000000 0.005576 0.999985
vn 0.000000 0.005576 0.999985
vn 0.000000 0.005576 0.999985
vn 0.000000 0.005576 0.999985
vn 0.000000 0.005576 0.999985
vn 0.000000 0.005576 0.999985
vn 0.000000 0.005576 0.999985
vn 0.000000 0.005576 0.999985
vn 0.000000 0.005576 0.999985
vn 0.000000 0.005576 0.999985
vn 0.000000 0.005576 0.999985
vn 0.000000 0.005576 0.999985
vn 0.000000 0.005576 0.999985
vn 0.000000 0.005576 0.999985
vn 0.000000 0.005576 0.999985
vn 0.000000 0.005576 0.999985
vn 0.000000 0.005576 0.999985
vn 0.000000 0.005576 0.999985
vn 0.000000 0.005576 0.999985
vn 0.000000 0.005576 0.999985
vn 0.000000 0.005576 0.999985
vn 0.000000 0.005576 0.999985
vn 0.000000 0.005576 0.999985
vn 0.000000 0.005576 0.999985
vn 0.000000 0.005576 0.999985
vn 0.000000 0.005576 0.999985
vn 0.000000 0.005576 0.999985
vn 0.000000 0.005576 0.999985
vn 0.000000 0.005576 0.999985
vn 0.000000 0.005576 0.999985
vn 0.000000 0.005576 0.999985
vn 0.000000 0.005576 0.999985
vn 0.000000 0.005576 0.999985
vn 0.000000 0.005576 0.999985
vn 0.000000 0.005576 0.999985
vn 0.000000 0.005576 0.999985
vn 0.000000 0.005576 0.999985
vn 0.000000 0.005576 0.999985
vn 0.000000 0.005576 0.999985
vn 0.000000 0.005576 0.999985
vn 0.000000 0.005576 0.999985
vn 0.000000 0.005576 0.999985
vn 0.000000 0.005576 0.999985
vn 0.000000 0.005576 0.999985
vn 0.000000 0.005576 0.999985
vn 0.000000 0.005576 0.999985
vn 0.000000 0.005576 0.999985
vn 0.000000 0.005576 0.999985
vn 0.000000 0.005576 0.999985
vn 0.000000 0.005576 0.999985
vn 0.000000 0.005576 0.999985
vn 0.000000 0.005576 0.999985
vn 0.000000 0.005576 0.999985
vn 0.000000 0.005576 0.999985
vn 0.000000 0.005576 0.999985
vn 0.000000 0.005576 0.999985
vn 0.000000 0.005576 0.999985
vn 0.000000 0.005576 0.999985
vn 0.000000 0.005576 0.999985
vn 0.000000 0.005576 0.999985
vn 0.000000 0.005576 0.999985
vn 0.000000 0.005576 0.999985
vn 0.000000 0.005576 0.999985
vn 0.000000 0.005576 0.999985
vn 0.000000 0.005576 0.999985
vn 0.000000 0.005576 0.999985
vn 0.000000 0.005576 0.999985
vn 0.000000 0.005576 0.999985
vn 0.000000 0.005576 0.999985
vn 0.000000 0.005576 0.999985
vn 0.000000 0.005576 0.999985
vn 0.000000 0.005576 0.999985
vn 0.000000 0.005576 0.999985
vn 0.000000 0.005576 0.999985
vn 0.000000 0.005576 0.999985
vn 0.000000 0.005576 0.999985
vn 0.000000 0.005576 0.999985
vn 0.000000 0.005576 0.999985
s 1
g pPlane1
usemtl lambert4SG
f 33/53/105 34/54/106 45/65/107 44/64/108
f 34/54/106 35/55/109 46/66/110 45/65/107
f 35/55/109 36/56/111 47/67/112 46/66/110
f 36/56/111 37/57/113 48/68/114 47/67/112
f 37/57/113 38/58/115 49/69/116 48/68/114
f 38/58/115 39/59/117 50/70/118 49/69/116
f 39/59/117 40/60/119 51/71/120 50/70/118
f 40/60/119 41/61/121 52/72/122 51/71/120
f 41/61/121 42/62/123 53/73/124 52/72/122
f 42/62/123 43/63/125 54/74/126 53/73/124
f 44/64/108 45/65/107 56/76/127 55/75/128
f 45/65/107 46/66/110 57/77/129 56/76/127
f 46/66/110 47/67/112 58/78/130 57/77/129
f 47/67/112 48/68/114 59/79/131 58/78/130
f 48/68/114 49/69/116 60/80/132 59/79/131
f 49/69/116 50/70/118 61/81/133 60/80/132
f 50/70/118 51/71/120 62/82/134 61/81/133
f 51/71/120 52/72/122 63/83/135 62/82/134
f 52/72/122 53/73/124 64/84/136 63/83/135
f 53/73/124 54/74/126 65/85/137 64/84/136
f 55/75/128 56/76/127 67/87/138 66/86/139
f 56/76/127 57/77/129 68/88/140 67/87/138
f 57/77/129 58/78/130 69/89/141 68/88/140
f 58/78/130 59/79/131 70/90/142 69/89/141
f 59/79/131 60/80/132 71/91/143 70/90/142
f 60/80/132 61/81/133 72/92/144 71/91/143
f 61/81/133 62/82/134 73/93/145 72/92/144
f 62/82/134 63/83/135 74/94/146 73/93/145
f 63/83/135 64/84/136 75/95/147 74/94/146
f 64/84/136 65/85/137 76/96/148 75/95/147
f 66/86/139 67/87/138 78/98/149 77/97/150
f 67/87/138 68/88/140 79/99/151 78/98/149
f 68/88/140 69/89/141 80/100/152 79/99/151
f 69/89/141 70/90/142 81/101/153 80/100/152
f 70/90/142 71/91/143 82/102/154 81/101/153
f 71/91/143 72/92/144 83/103/155 82/102/154
f 72/92/144 73/93/145 84/104/156 83/103/155
f 73/93/145 74/94/146 85/105/157 84/104/156
f 74/94/146 75/95/147 86/106/158 85/105/157
f 75/95/147 76/96/148 87/107/159 86/106/158
f 77/97/150 78/98/149 89/109/160 88/108/161
f 78/98/149 79/99/151 90/110/162 89/109/160
f 79/99/151 80/100/152 91/111/163 90/110/162
f 80/100/152 81/101/153 92/112/164 91/111/163
f 81/101/153 82/102/154 93/113/165 92/112/164
f 82/102/154 83/103/155 94/114/166 93/113/165
f 83/103/155 84/104/156 95/115/167 94/114/166
f 84/104/156 85/105/157 96/116/168 95/115/167
f 85/105/157 86/106/158 97/117/169 96/116/168
f 86/106/158 87/107/159 98/118/170 97/117/169
f 88/108/161 89/109/160 100/120/171 99/119/172
f 89/109/160 90/110/162 101/121/173 100/120/171
f 90/110/162 91/111/163 102/122/174 101/121/173
f 91/111/163 92/112/164 103/123/175 102/122/174
f 92/112/164 93/113/165 104/124/176 103/123/175
f 93/113/165 94/114/166 105/125/177 104/124/176
f 94/114/166 95/115/167 106/126/178 105/125/177
f 95/115/167 96/116/168 107/127/179 106/126/178
f 96/116/168 97/117/169 108/128/180 107/127/179
f 97/117/169 98/118/170 109/129/181 108/128/180
f 99/119/172 100/120/171 111/131/182 110/130/183
f 100/120/171 101/121/173 112/132/184 111/131/182
f 101/121/173 102/122/174 113/133/185 112/132/184
f 102/122/174 103/123/175 114/134/186 113/133/185
f 103/123/175 104/124/176 115/135/187 114/134/186
f 104/124/176 105/125/177 116/136/188 115/135/187
f 105/125/177 106/126/178 117/137/189 116/136/188
f 106/126/178 107/127/179 118/138/190 117/137/189
f 107/127/179 108/128/180 119/139/191 118/138/190
f 108/128/180 109/129/181 120/140/192 119/139/191
f 110/130/183 111/131/182 122/142/193 121/141/194
f 111/131/182 112/132/184 123/143/195 122/142/193
f 112/132/184 113/133/185 124/144/196 123/143/195
f 113/133/185 114/134/186 125/145/197 124/144/196
f 114/134/186 115/135/187 126/146/198 125/145/197
f 115/135/187 116/136/188 127/147/199 126/146/198
f 116/136/188 117/137/189 128/148/200 127/147/199
f 117/137/189 118/138/190 129/149/201 128/148/200
f 118/138/190 119/139/191 130/150/202 129/149/201
f 119/139/191 120/140/192 131/151/203 130/150/202
f 121/141/194 122/142/193 133/153/204 132/152/205
f 122/142/193 123/143/195 134/154/206 133/153/204
f 123/143/195 124/144/196 135/155/207 134/154/206
f 124/144/196 125/145/197 136/156/208 135/155/207
f 125/145/197 126/146/198 137/157/209 136/156/208
f 126/146/198 127/147/199 138/158/210 137/157/209
f 127/147/199 128/148/200 139/159/211 138/158/210
f 128/148/200 129/149/201 140/160/212 139/159/211
f 129/149/201 130/150/202 141/161/213 140/160/212
f 130/150/202 131/151/203 142/162/214 141/161/213
f 132/152/205 133/153/204 144/164/215 143/163/216
f 133/153/204 134/154/206 145/165/217 144/164/215
f 134/154/206 135/155/207 146/166/218 145/165/217
f 135/155/207 136/156/208 147/167/219 146/166/218
f 136/156/208 137/157/209 148/168/220 147/167/219
f 137/157/209 138/158/210 149/169/221 148/168/220
f 138/158/210 139/159/211 150/170/222 149/169/221
f 139/159/211 140/160/212 151/171/223 150/170/222
f 140/160/212 141/161/213 152/172/224 151/171/223
f 141/161/213 142/162/214 153/173/225 152/172/224
g default
v 0.561817 -1.011329 0.286399
v 2.437053 -1.011329 0.286399
v 0.561817 0.007579 0.286399
v 2.437053 0.007579 0.286399
v 0.561817 0.007579 0.218488
v 2.437053 0.007579 0.218488
v 0.561817 -1.011329 0.218488
v 2.437053 -1.011329 0.218488
vt 0.982256 0.245747
vt 0.557635 0.232356
vt 0.543607 0.469881
vt 0.968222 0.483269
vt 0.558447 0.469828
vt 0.968173 0.468429
vt 0.557685 0.247196
vt 0.967414 0.245807
vt 0.556874 0.009732
vt 0.966604 0.008325
vt 0.542847 0.247250
vt 0.967363 0.230971
vt 0.983018 0.468373
vt 0.558500 0.484667
vn 0.000000 0.000000 1.000000
vn 0.000000 0.000000 1.000000
vn 0.000000 0.000000 1.000000
vn 0.000000 0.000000 1.000000
vn 0.000000 1.000000 0.000000
vn 0.000000 1.000000 0.000000
vn 0.000000 1.000000 0.000000
vn 0.000000 1.000000 0.000000
vn 0.000000 0.000000 -1.000000
vn 0.000000 0.000000 -1.000000
vn 0.000000 0.000000 -1.000000
vn 0.000000 0.000000 -1.000000
vn 0.000000 -1.000000 0.000000
vn 0.000000 -1.000000 0.000000
vn 0.000000 -1.000000 0.000000
vn 0.000000 -1.000000 0.000000
vn 1.000000 0.000000 0.000000
vn 1.000000 0.000000 0.000000
vn 1.000000 0.000000 0.000000
vn 1.000000 0.000000 0.000000
vn -1.000000 0.000000 0.000000
vn -1.000000 0.000000 0.000000
vn -1.000000 0.000000 0.000000
vn -1.000000 0.000000 0.000000
s off
g pCube3
usemtl initialShadingGroup
f 154/185/226 155/175/227 157/182/228 156/183/229
f 156/177/230 157/187/231 159/178/232 158/179/233
f 158/179/234 159/178/235 161/180/236 160/181/237
f 160/181/238 161/180/239 155/175/240 154/185/241
f 155/184/242 161/180/243 159/178/244 157/176/245
f 160/181/246 154/174/247 156/186/248 158/179/249
